<?xml version="1.0" standalone="no"?>
<!DOCTYPE svg PUBLIC "-//W3C//DTD SVG 20010904//EN"
 "http://www.w3.org/TR/2001/REC-SVG-20010904/DTD/svg10.dtd">
<svg version="1.0" xmlns="http://www.w3.org/2000/svg"
 width="260.000000pt" height="260.000000pt" viewBox="0 0 260.000000 260.000000"
 preserveAspectRatio="xMidYMid meet">
<metadata>
Created by potrace 1.11, written by Peter Selinger 2001-2013
</metadata>
<g transform="translate(0.000000,260.000000) scale(0.100000,-0.100000)"
fill="#000000" stroke="none">
<path d="M1095 2443 c-369 -65 -686 -303 -850 -638 -94 -191 -126 -341 -120
-555 5 -183 43 -338 124 -498 165 -327 486 -562 851 -625 79 -14 312 -16 380
-4 254 47 461 153 635 324 82 80 98 100 152 179 91 134 149 279 189 469 13 66
12 292 -2 379 -56 346 -269 651 -580 834 -74 43 -215 98 -319 123 -114 27
-340 33 -460 12z"/>
</g>
</svg>
