<svg width="200" height="200" viewBox="0 0 200 200" xmlns="http://www.w3.org/2000/svg">
  <!-- Apple Body -->
  <path d="M100 50 
           Q 120 20 150 50 
           Q 180 80 180 120 
           Q 180 160 150 190 
           Q 120 220 100 200 
           Q 80 220 50 190 
           Q 20 160 20 120 
           Q 20 80 50 50 Z"
        fill="#e74c3c" stroke="#c0392b" stroke-width="2"/>
  
  <!-- Apple Stem -->
  <path d="M100 50 
           L90 30 
           Q85 20 90 10 
           L110 10 
           Q115 20 110 30 Z"
        fill="#27ae60"/>
  
  <!-- Apple Leaf -->
  <path d="M110 30 
           Q120 25 130 35 
           Q140 45 130 55 
           Q120 65 110 60 
           Q100 65 90 55 
           Q80 45 90 35 Z"
        fill="#2ecc71"/>
  
  <!-- Highlight to give some depth -->
  <path d="M150 60 
           Q160 70 160 80 
           Q160 90 150 100 
           Q140 110 130 100 
           Q120 90 120 80 Z"
        fill="#f1c40f" opacity="0.3"/>
</svg>