<svg width="100" height="100" viewBox="0 0 100 100" xmlns="http://www.w3.org/2000/svg">
  <!-- Strawberry body -->
  <path d="M50 10 
           Q 75 40 50 80 
           Q 25 40 50 10 Z" 
        fill="#e74c3c" stroke="#c0392b" stroke-width="2"/>
  
  <!-- Seeds -->
  <circle cx="40" cy="35" r="1.5" fill="#f1c40f"/>
  <circle cx="60" cy="25" r="1.5" fill="#f1c40f"/>
  <circle cx="50" cy="50" r="1.5" fill="#f1c40f"/>
  <circle cx="30" cy="60" r="1.5" fill="#f1c40f"/>
  <circle cx="70" cy="65" r="1.5" fill="#f1c40f"/>
  
  <!-- Leaves -->
  <path d="M50 10 
           L45 20 
           L50 18 
           L55 20 
           Z" 
        fill="#27ae60"/>
  <path d="M55 10 
           L53 18 
           L60 15 
           L62 20 
           Z" 
        fill="#27ae60"/>
  <path d="M45 10 
           L47 18 
           L40 15 
           L38 20 
           Z" 
        fill="#27ae60"/>
  
  <!-- Stem -->
  <path d="M50 10 
           V2 
           Q50 0 52 2 
           H48 
           Q50 0 48 2 Z" 
        fill="#2ecc71"/>
</svg>