<?xml version="1.0" encoding="UTF-8"?>
<svg id="Layer_2" data-name="Layer 2" xmlns="http://www.w3.org/2000/svg" viewBox="0 0 275.05 237.94">
  <defs>
    <style>
      .cls-1 {
        fill: #000;
      }

      .cls-1, .cls-2, .cls-3, .cls-4, .cls-5, .cls-6, .cls-7 {
        stroke-width: 0px;
      }

      .cls-2 {
        fill: #5d38ff;
      }

      .cls-3 {
        fill: #5bff89;
      }

      .cls-4 {
        fill: #ff6565;
      }

      .cls-5 {
        fill: #fe5;
      }

      .cls-6 {
        fill: #fdfdfd;
      }

      .cls-7 {
        fill: #ff64f9;
      }
    </style>
  </defs>
  <g id="Layer_1-2" data-name="Layer 1">
    <path class="cls-2" d="M0,102.44C45.58,67.7,90.69,34.91,135.41,1.59c2.99-2.23,4.94-2.03,7.72.08,13.26,10.06,26.65,19.96,40.01,29.9,1.98,1.48,4.04,2.86,6.97,4.93,0-7.84.18-14.88-.08-21.9-.12-3.41.71-4.64,4.35-4.51,7.15.26,14.33.22,21.48-.14,3.54-.18,4.01,1.08,3.96,4.23-.2,13.49,0,26.99-.21,40.48-.05,3.55,1.09,5.93,3.89,8,15.92,11.79,31.76,23.68,47.62,35.54,1.33.99,2.62,2.03,3.91,3.03-.78,1.93-2.34,1.24-3.51,1.25-8.33.04-16.67.23-24.98-.16-4.55-.21-6.26.65-6.23,5.77.24,41.14.07,82.29.28,123.44.02,4.8-.78,6.37-6.07,6.36-64.97-.19-129.93-.14-194.9.06-4.61.01-5.4-1.39-5.39-5.6.12-41.31-.1-82.62.13-123.93.03-5.34-1.65-6.27-6.42-6.07-8.87.38-17.78.11-27.95.11ZM100.35,203.95c-4.67,0-8.33-.14-11.97.04-2.88.14-4.37-.57-4.12-3.83.25-3.31.2-6.67,0-9.99-.17-2.72.95-3.37,3.48-3.31,7.32.16,14.65.11,21.98.11,25.48.01,50.96,0,76.44.08,1.65,0,4.42-1.34,4.49,2.13.09,4.48,1.4,9.65-.4,13.23-1.52,3.01-7.03.66-10.73,1.18-.33.05-.67.03-1,0-2.34-.18-2.94.68-2.08,2.93,1.62,4.19,3.13,8.42,4.51,12.69.72,2.22,1.81,3.14,4.28,3.04,5.32-.21,10.66-.18,15.98,0,2.72.09,3.67-.57,3.66-3.55-.13-34.97-.13-69.94-.08-104.91.02-11.31-4.44-20.47-13.36-27.15-16.78-12.57-33.81-24.81-50.69-37.26-1.72-1.27-2.86-1.49-4.74-.11-17.05,12.49-34.22,24.81-51.31,37.26-9.69,7.06-14.5,16.53-14.31,28.66.21,13.65,0,27.31.02,40.97.03,20.48.18,40.97.07,61.45-.02,3.75,1.1,4.88,4.81,4.61,4.8-.35,9.66-.22,14.48-.04,2.31.09,3.71-.46,4.54-2.75,1.81-4.97,3.82-9.87,6.02-15.48ZM110.12,222.16c17.65,0,34.77-.02,51.89.03,2.21,0,3.59-.17,2.51-2.96-1.61-4.18-2.99-8.45-4.49-12.68-.65-1.84-1.6-2.96-3.95-2.92-12.14.17-24.28.19-36.42.11-2.35-.01-3.69.69-4.4,2.95-1.59,5.04-3.32,10.03-5.13,15.48Z"/>
    <path class="cls-1" d="M100.35,203.95c-2.2,5.61-4.21,10.51-6.02,15.48-.83,2.29-2.23,2.84-4.54,2.75-4.82-.19-9.68-.31-14.48.04-3.71.27-4.83-.86-4.81-4.61.11-20.48-.04-40.97-.07-61.45-.02-13.66.19-27.31-.02-40.97-.19-12.14,4.62-21.61,14.31-28.66,17.09-12.44,34.26-24.77,51.31-37.26,1.88-1.38,3.02-1.16,4.74.11,16.87,12.45,33.91,24.69,50.69,37.26,8.92,6.69,13.37,15.85,13.36,27.15-.05,34.97-.04,69.94.08,104.91.01,2.98-.94,3.64-3.66,3.55-5.32-.18-10.66-.2-15.98,0-2.47.1-3.57-.83-4.28-3.04-1.38-4.27-2.9-8.5-4.51-12.69-.87-2.25-.26-3.11,2.08-2.93.33.03.67.04,1,0,3.7-.52,9.21,1.83,10.73-1.18,1.8-3.57.49-8.75.4-13.23-.07-3.48-2.84-2.13-4.49-2.13-25.48-.09-50.96-.07-76.44-.08-7.33,0-14.66.05-21.98-.11-2.53-.06-3.64.59-3.48,3.31.2,3.32.24,6.67,0,9.99-.24,3.27,1.24,3.98,4.12,3.83,3.64-.18,7.3-.04,11.97-.04ZM141.91,100.37c-.54-.33-1.08-.93-1.63-.95-12.15-.26-24.31-.81-36.46-.55-8.95.19-16.04,7.4-16.27,16.52-.35,14.32-.34,28.67.12,42.98.34,10.5,7.36,16.71,17.84,16.78,9,.06,18,.07,26.99-.08,3.25-.06,6.64.83,9.76-.86,9.13.17,18.25.43,27.38.5,10.53.08,17-5.69,17.36-16.33.47-14.11.55-28.25.28-42.37-.2-10.16-7.24-16.6-17.29-16.7-6.98-.07-13.96-.08-20.94.09-2.38.06-4.99-.93-7.15.98ZM138.69,87.8c5.69,0,9.79.07,13.89-.03,2.28-.05,12.4-10.44,12.41-12.61,0-.48-.2-.96-.34-1.44-1.58-5.22-8.2-7.3-11.84-3.33-4.67,5.1-8.76,10.73-14.12,17.4ZM136.88,87.63c-5.1-6.28-9.31-11.8-13.9-16.98-2.68-3.03-8.01-2.42-10.52.84-2.64,3.43-2.11,6.32,1.62,8.72,1.95,1.26,3.59,2.96,4.62,5.11.81,1.69,2.07,2.37,3.97,2.33,4.28-.1,8.57-.03,14.2-.03Z"/>
    <path class="cls-1" d="M110.12,222.16c1.82-5.45,3.54-10.44,5.13-15.48.72-2.26,2.05-2.96,4.4-2.95,12.14.08,24.28.06,36.42-.11,2.36-.03,3.3,1.09,3.95,2.92,1.51,4.22,2.89,8.49,4.49,12.68,1.07,2.79-.3,2.97-2.51,2.96-17.12-.05-34.24-.03-51.89-.03Z"/>
    <path class="cls-3" d="M141.91,100.37c2.16-1.91,4.77-.92,7.15-.98,6.98-.17,13.96-.16,20.94-.09,10.05.09,17.09,6.54,17.29,16.7.27,14.12.19,28.26-.28,42.37-.35,10.64-6.83,16.42-17.36,16.33-9.13-.07-18.25-.32-27.37-.5-.04-11.72-.07-23.45-.14-35.18-.08-12.89.63-25.78-.23-38.67Z"/>
    <path class="cls-7" d="M141.91,100.37c.86,12.88.15,25.78.23,38.67.07,11.73.1,23.45.14,35.18-3.13,1.69-6.52.8-9.77.86-8.99.16-17.99.14-26.99.08-10.48-.07-17.5-6.28-17.84-16.78-.46-14.32-.48-28.66-.12-42.98.23-9.12,7.32-16.34,16.27-16.52,12.14-.25,24.3.29,36.46.55.55.01,1.09.62,1.63.95ZM99.71,136.35c.07,0,.14,0,.21,0,0,6.48-.07,12.96.02,19.44.09,6.06,1.93,8.2,6.79,8.25,6.2.06,8.09-1.79,8.15-8.45.11-12.79.14-25.58.15-38.38,0-5.04-2.71-7.92-7.38-8.02-5.54-.12-7.9,2.14-7.93,7.73-.04,6.48,0,12.96,0,19.44Z"/>
    <path class="cls-5" d="M138.69,87.8c5.36-6.67,9.45-12.3,14.12-17.4,3.64-3.98,10.26-1.89,11.84,3.33.14.47.35.96.34,1.44-.01,2.17-10.13,12.56-12.41,12.61-4.09.09-8.19.03-13.89.03Z"/>
    <path class="cls-4" d="M136.88,87.63c-5.63,0-9.92-.07-14.2.03-1.9.04-3.16-.64-3.97-2.33-1.04-2.15-2.68-3.85-4.62-5.11-3.72-2.41-4.26-5.3-1.62-8.72,2.51-3.26,7.83-3.87,10.52-.84,4.59,5.18,8.8,10.7,13.9,16.98Z"/>
    <path class="cls-6" d="M99.71,136.35c0-6.48-.03-12.96,0-19.44.03-5.59,2.39-7.85,7.93-7.73,4.67.1,7.38,2.98,7.38,8.02-.01,12.79-.04,25.58-.15,38.38-.06,6.66-1.94,8.51-8.15,8.45-4.86-.05-6.7-2.18-6.79-8.25-.09-6.48-.02-12.96-.02-19.44-.07,0-.14,0-.21,0Z"/>
  </g>
</svg>