<?xml version="1.0" standalone="no"?>
<!DOCTYPE svg PUBLIC "-//W3C//DTD SVG 20010904//EN"
 "http://www.w3.org/TR/2001/REC-SVG-20010904/DTD/svg10.dtd">
<svg version="1.0" xmlns="http://www.w3.org/2000/svg"
 width="500.000000pt" height="500.000000pt" viewBox="0 0 500.000000 500.000000"
 preserveAspectRatio="xMidYMid meet">
<metadata>
Created by potrace 1.14, written by Peter Selinger 2001-2017
</metadata>
<g transform="translate(0.000000,500.000000) scale(0.100000,-0.100000)"
fill="#000000" stroke="none">
<path d="M2490 4602 c-38 -20 -1220 -890 -1964 -1446 l-470 -351 120 -7 c65
-4 178 -5 251 -1 72 3 148 2 168 -1 69 -13 65 55 65 -1224 0 -971 2 -1151 14
-1167 14 -19 48 -20 1813 -17 989 2 1806 5 1816 8 10 3 23 18 28 32 7 18 10
416 8 1172 -2 842 1 1151 9 1166 6 12 22 24 34 27 13 3 140 4 283 3 261 -3
285 -2 285 15 0 5 -190 151 -422 324 -233 173 -446 333 -475 354 -90 69 -87
48 -84 512 2 357 0 408 -13 422 -14 13 -49 15 -250 14 -177 -2 -237 -6 -250
-16 -13 -11 -16 -45 -18 -233 l-3 -219 -80 57 c-44 31 -239 176 -433 321 -195
144 -357 263 -362 263 -5 0 -14 2 -22 5 -7 3 -29 -3 -48 -13z m-252 -1246 c31
-28 219 -255 236 -283 6 -10 -24 -13 -134 -13 l-142 0 -21 27 c-12 15 -50 55
-83 88 -71 69 -80 91 -61 137 17 40 35 56 83 73 48 16 83 8 122 -29z m683 29
c33 -18 69 -69 69 -101 0 -44 -167 -215 -224 -230 -12 -2 -72 -3 -135 -2
l-113 3 103 130 c157 196 177 215 228 215 23 0 55 -7 72 -15z m-357 -545 c5
-5 17 -5 28 1 12 6 124 9 301 7 272 -3 284 -4 329 -26 61 -31 110 -79 139
-139 l24 -48 0 -450 c0 -446 0 -450 -23 -507 -28 -69 -92 -130 -160 -152 -39
-12 -160 -16 -682 -22 -581 -6 -641 -5 -694 10 -76 22 -129 58 -165 113 -52
78 -55 111 -56 563 0 375 2 420 18 467 20 58 84 135 131 160 81 42 96 43 456
38 190 -4 349 -10 354 -15z"/>
</g>
</svg>
