<?xml version="1.0" standalone="no"?>
<!DOCTYPE svg PUBLIC "-//W3C//DTD SVG 20010904//EN"
 "http://www.w3.org/TR/2001/REC-SVG-20010904/DTD/svg10.dtd">
<svg version="1.0" xmlns="http://www.w3.org/2000/svg"
 width="1080.000000pt" height="1080.000000pt" viewBox="0 0 1080.000000 1080.000000"
 preserveAspectRatio="xMidYMid meet">
<metadata>
Created by potrace 1.11, written by Peter Selinger 2001-2013
</metadata>
<g transform="translate(0.000000,1080.000000) scale(0.100000,-0.100000)"
fill="#000000" stroke="none">
<path d="M0 9759 c0 -869 3 -1039 14 -1030 23 19 71 2 83 -30 8 -22 8 -29 0
-30 -7 0 -1 -6 13 -12 14 -6 30 -18 37 -27 10 -12 12 -13 13 -1 0 8 3 12 6 8
3 -3 14 3 24 13 9 9 24 20 31 22 11 4 10 9 -4 25 -17 20 -17 21 7 25 19 4 23
1 18 -11 -5 -14 -3 -14 11 -2 9 7 14 17 11 22 -3 5 -1 9 3 9 5 0 14 -9 21 -20
16 -27 32 -25 32 3 0 29 37 70 57 63 8 -3 19 -6 24 -6 5 0 9 -8 9 -18 0 -24
29 -64 30 -42 0 8 8 2 16 -13 12 -23 18 -26 30 -16 8 6 14 22 14 34 0 13 6 25
14 28 8 3 12 14 9 25 -3 13 4 24 21 36 18 11 25 13 24 4 -2 -7 -7 -16 -12 -19
-5 -4 -5 -12 -1 -19 6 -9 10 -9 16 1 8 12 11 12 18 -1 6 -8 13 -11 17 -7 4 3
1 13 -5 21 -7 8 -10 20 -6 26 8 13 35 13 35 0 0 -5 5 -10 11 -10 6 0 9 7 6 15
-4 8 -2 17 4 20 6 4 8 -9 7 -34 -2 -22 0 -39 3 -38 3 1 13 -4 22 -12 11 -8 17
-9 17 -3 0 6 10 21 23 32 12 12 22 25 22 30 0 5 15 23 33 40 32 29 48 38 39
23 -3 -5 -1 -19 4 -32 l9 -24 23 21 c13 12 29 22 37 22 22 0 80 23 80 32 0 4
4 8 10 8 5 0 7 -7 4 -15 -8 -20 15 -19 45 2 19 13 28 14 42 5 10 -7 30 -12 43
-12 14 0 30 -8 35 -17 7 -13 10 -14 11 -4 0 12 3 12 17 -1 21 -17 66 -31 57
-17 -3 5 8 8 25 7 17 -1 33 -8 35 -15 3 -7 13 -13 23 -13 17 1 17 1 1 11 -19
11 -24 44 -9 53 15 9 40 -4 46 -25 4 -10 13 -19 21 -19 8 0 13 4 9 9 -9 16 29
30 63 25 18 -3 32 -1 32 4 0 5 17 8 37 6 21 -1 41 2 44 8 4 6 12 4 20 -4 8 -7
23 -15 33 -16 11 -2 34 -15 53 -29 35 -27 88 -26 77 1 -6 16 12 31 20 17 3 -5
15 -7 27 -4 15 4 22 0 26 -15 2 -11 13 -22 24 -25 18 -5 18 -4 1 19 -9 13 -21
24 -25 24 -5 0 -6 4 -3 9 4 5 -3 7 -14 4 -14 -4 -20 0 -20 11 0 9 7 16 15 16
25 0 73 -28 85 -50 9 -17 14 -18 30 -8 25 16 37 4 19 -19 -13 -16 -12 -17 4
-4 13 11 23 11 41 3 17 -8 27 -7 36 1 9 9 14 9 17 0 3 -7 13 -9 31 -4 15 4 34
6 42 4 12 -4 12 -3 1 5 -20 14 5 25 29 12 12 -6 20 -7 20 -1 0 10 14 9 43 -4
10 -4 38 -5 62 -2 25 2 42 1 40 -3 -6 -10 24 -22 36 -14 5 3 9 13 9 22 0 28
15 43 34 36 14 -5 17 -14 12 -37 -5 -25 -4 -28 8 -17 8 6 16 28 18 48 5 64 68
49 68 -16 0 -24 1 -25 20 -7 11 10 20 15 20 11 0 -3 11 1 24 9 19 13 25 13 29
3 4 -10 9 -9 17 5 14 22 44 22 66 0 9 -10 28 -16 41 -15 15 2 25 -3 30 -14 5
-15 8 -14 15 7 8 20 11 21 19 9 8 -11 12 -12 16 -2 7 18 26 15 19 -4 -3 -8 -2
-12 4 -9 21 13 9 -11 -15 -30 -14 -11 -37 -30 -50 -43 -14 -13 -25 -20 -25
-16 0 3 -13 -8 -29 -25 -16 -17 -33 -31 -38 -31 -5 0 -15 -9 -23 -20 -8 -11
-18 -20 -23 -20 -5 0 -14 -6 -22 -12 -7 -7 -37 -33 -66 -58 -29 -25 -56 -49
-61 -55 -41 -50 -49 -58 -42 -45 4 8 -48 -39 -114 -105 -67 -65 -122 -121
-122 -123 0 -2 6 0 12 3 13 6 -22 -26 -52 -49 -32 -24 -111 -126 -105 -136 3
-6 0 -7 -9 -4 -9 3 -16 1 -16 -5 0 -7 -10 -22 -22 -35 -26 -27 -37 -41 -93
-114 -22 -29 -39 -55 -37 -58 1 -2 -8 -15 -21 -27 -28 -27 -60 -77 -50 -77 5
0 0 -5 -10 -11 -9 -6 -15 -14 -12 -19 3 -4 -2 -11 -11 -14 -8 -3 -13 -10 -10
-15 3 -5 -1 -12 -10 -15 -9 -4 -14 -9 -11 -12 2 -3 -6 -17 -19 -31 -13 -14
-22 -28 -20 -31 3 -2 -4 -13 -14 -25 -11 -11 -17 -24 -14 -29 3 -4 1 -8 -5 -8
-14 0 -42 -55 -33 -65 4 -5 1 -5 -5 -1 -12 6 -18 -5 -14 -26 0 -5 -4 -8 -10
-8 -5 0 -7 -4 -4 -10 3 -5 2 -10 -4 -10 -13 0 -52 -75 -44 -84 4 -3 1 -6 -6
-6 -7 0 -9 -4 -6 -10 3 -5 1 -10 -5 -10 -6 0 -8 -4 -5 -10 3 -5 1 -10 -4 -10
-6 0 -11 -7 -11 -15 0 -8 -4 -15 -9 -15 -10 0 -56 -99 -54 -117 0 -7 -3 -13
-9 -13 -5 0 -6 -4 -3 -10 3 -5 2 -10 -3 -10 -9 0 -49 -82 -54 -110 -2 -8 -6
-17 -10 -20 -11 -9 -91 -220 -141 -375 -98 -302 -164 -626 -198 -970 -13 -135
-17 -570 -6 -715 14 -181 52 -443 84 -580 13 -59 17 -79 27 -145 2 -13 -7 -28
-23 -40 -14 -10 -21 -13 -15 -5 9 12 7 19 -6 33 -16 16 -18 16 -38 -1 -14 -12
-18 -22 -11 -29 6 -6 -1 -9 -23 -8 -36 2 -52 25 -17 25 18 0 20 3 11 12 -10
10 -17 10 -31 1 -16 -10 -20 -9 -24 8 -3 10 -1 17 4 13 5 -3 9 0 9 5 0 6 -5
11 -11 11 -5 0 -7 5 -3 12 4 6 -3 4 -17 -5 -26 -19 -59 -23 -59 -7 0 6 5 10
12 10 6 0 3 9 -7 20 -10 11 -14 20 -9 21 8 0 -6 7 -41 20 -5 2 -10 -3 -11 -11
-3 -42 -3 -43 -19 -30 -9 7 -14 19 -11 26 3 9 0 11 -11 7 -11 -4 -14 -2 -9 5
4 7 2 12 -4 12 -6 0 -9 4 -6 9 3 4 -6 6 -19 3 -25 -4 -25 -22 0 -22 8 0 11 -7
8 -20 -3 -11 -9 -20 -14 -20 -5 0 -6 7 -3 15 6 14 -7 24 -38 29 -7 1 -23 7
-34 14 -12 6 -24 8 -28 5 -12 -12 -6 33 6 46 7 8 8 11 2 8 -6 -4 -19 2 -29 13
-10 11 -21 17 -25 15 -4 -3 -13 2 -20 10 -11 13 -10 15 6 9 18 -5 18 -5 1 6
-14 9 -22 9 -30 1 -6 -6 -7 -11 -1 -11 5 0 3 -4 -5 -9 -10 -6 -24 -5 -41 4
-32 17 -63 15 -72 -5 -5 -12 -7 -12 -7 2 -1 10 8 23 19 30 23 15 27 30 6 22
-10 -4 -14 1 -13 15 1 11 7 23 14 25 16 7 17 33 1 38 -6 2 -12 18 -12 35 -1
17 2 29 7 26 4 -2 7 0 7 5 0 11 -30 26 -44 23 -5 -1 -3 6 5 15 13 16 12 17
-16 10 -16 -4 -35 -14 -41 -22 -15 -19 -35 -18 -28 1 4 8 2 15 -3 15 -5 0 -9
-10 -10 -21 -3 -29 -10 -34 -28 -19 -9 7 -13 15 -10 18 3 3 -5 10 -18 17 -12
6 -21 19 -19 28 2 9 -2 17 -8 17 -5 0 -10 8 -10 18 0 10 -17 29 -40 42 -43 27
-50 40 -22 41 13 0 11 3 -6 10 -13 5 -20 14 -17 20 4 6 14 8 22 5 10 -4 13 0
11 11 -2 9 -9 18 -17 21 -8 3 -11 0 -7 -7 4 -6 3 -11 -2 -11 -5 0 -14 17 -20
38 -11 36 -10 36 6 17 22 -24 53 -35 33 -11 -7 8 -9 21 -5 27 4 7 3 9 -4 5 -6
-3 -18 2 -28 11 -16 16 -15 18 5 27 11 5 21 13 21 18 0 11 -17 10 -25 -2 -3
-5 -11 -10 -16 -10 -6 0 -7 4 -4 10 4 6 -7 8 -27 6 -31 -4 -31 -3 -13 11 20
15 19 15 -2 10 -13 -3 -26 0 -30 5 -3 7 -1 8 5 4 7 -4 12 -1 12 8 0 10 7 13
25 10 30 -5 34 15 5 23 -11 3 -17 9 -14 14 3 5 -6 9 -20 9 l-26 0 0 -659 c0
-457 3 -662 11 -666 6 -4 8 -13 5 -20 -2 -7 4 -22 14 -33 19 -20 21 -37 6 -61
-5 -7 -5 -16 1 -20 13 -9 -9 -69 -24 -64 -10 4 -13 -356 -13 -1776 l0 -1781
5400 0 5400 0 -1 1973 c0 1084 -3 1966 -6 1960 -2 -7 -14 -13 -24 -13 -13 0
-18 -4 -13 -12 5 -10 4 -10 -6 -1 -11 10 -17 8 -31 -9 -18 -20 -18 -20 -17 16
1 20 6 36 12 36 6 0 4 5 -4 10 -9 6 -18 6 -24 0 -13 -13 -39 -13 -31 0 4 6 11
8 16 5 5 -4 9 1 9 9 0 9 5 16 10 16 6 0 10 4 10 8 0 5 -18 7 -40 6 -36 -2 -52
7 -32 19 4 2 1 2 -5 1 -7 -2 -13 1 -13 7 0 6 -5 7 -10 4 -6 -4 -8 -11 -5 -16
8 -12 -40 -33 -60 -25 -9 3 -13 10 -10 16 3 5 2 10 -3 10 -15 0 -24 -33 -11
-41 6 -4 8 -12 5 -18 -11 -18 -26 -13 -26 9 0 17 -3 18 -26 10 -14 -6 -30 -7
-36 -4 -6 4 -14 0 -19 -7 -7 -11 -9 -9 -9 6 0 17 -7 21 -40 21 -31 1 -40 -2
-40 -15 0 -22 37 -54 44 -38 7 17 0 -23 -9 -51 -6 -18 -13 -22 -29 -18 -11 3
-29 6 -38 6 -10 0 -18 7 -18 16 0 8 -4 13 -9 10 -5 -4 -11 -1 -13 6 -6 16 -48
21 -64 7 -16 -13 -37 -2 -30 17 3 8 1 14 -4 14 -6 0 -10 -4 -10 -10 0 -5 -7
-10 -15 -10 -13 0 -13 3 -3 20 7 10 8 23 4 27 -5 4 -11 2 -13 -4 -6 -16 -33
-17 -33 -2 0 5 5 7 10 4 6 -3 10 1 10 9 0 9 11 18 24 22 14 3 32 14 41 24 19
21 51 16 66 -11 16 -31 35 -22 36 17 0 19 3 37 6 41 10 9 27 -8 27 -28 0 -10
6 -19 13 -19 8 0 7 -4 -3 -10 -13 -9 -13 -10 0 -10 9 0 28 14 43 31 14 17 31
28 37 24 6 -4 17 -1 25 5 8 6 19 9 25 5 5 -3 10 1 10 10 0 9 5 13 10 10 6 -3
10 -1 10 4 0 10 -14 15 -32 12 -12 -2 -9 13 8 37 14 20 14 23 -1 29 -10 3 -20
1 -24 -4 -3 -6 -14 -9 -23 -8 -17 3 -36 -31 -24 -42 9 -9 -14 -43 -29 -43 -20
0 -19 14 1 31 14 12 13 14 -7 21 -15 6 -27 4 -39 -7 -18 -17 -55 -21 -45 -5 3
5 2 10 -4 10 -5 0 -12 -4 -16 -10 -3 -5 -12 -7 -19 -4 -14 5 -46 -20 -46 -37
0 -5 -8 -9 -18 -9 -30 0 -93 -37 -122 -72 -23 -27 -30 -30 -42 -20 -12 10 -18
9 -28 -2 -6 -9 -8 -20 -4 -27 4 -7 2 -10 -7 -7 -17 6 -49 -21 -43 -37 3 -7 -8
-18 -25 -24 -16 -7 -35 -26 -41 -42 -7 -16 -16 -29 -21 -29 -5 0 -9 -9 -9 -20
0 -13 -12 -28 -30 -38 -31 -18 -39 -37 -17 -45 6 -3 0 -6 -14 -6 -30 -1 -59
-29 -60 -57 0 -10 -3 -13 -6 -6 -5 13 -24 17 -22 4 1 -4 1 -9 -1 -12 -1 -3 -3
-18 -5 -34 -5 -36 -33 -96 -45 -96 -5 0 -7 -7 -4 -15 4 -8 1 -15 -6 -15 -7 0
-10 -7 -6 -15 3 -9 -1 -18 -9 -21 -8 -4 -12 -10 -9 -15 3 -5 1 -9 -5 -9 -6 0
-8 -7 -4 -16 4 -12 0 -14 -21 -8 -23 5 -27 3 -32 -25 -7 -31 -7 -31 -28 -14
-15 13 -14 10 4 -11 17 -20 21 -30 12 -33 -6 -3 -10 -8 -7 -13 6 -9 -10 -7
-38 5 -22 9 -35 -1 -19 -17 18 -18 14 -30 -8 -23 -11 3 -20 2 -20 -3 0 -13
-48 -6 -67 10 -15 11 -16 10 -11 -10 4 -12 2 -22 -3 -22 -12 0 -12 37 1 45 8
5 78 136 80 150 1 2 12 31 27 62 78 176 220 594 238 703 3 19 15 71 26 115 11
44 22 98 25 120 2 22 9 54 14 70 10 34 18 85 25 165 3 30 8 67 10 83 6 31 13
93 21 192 8 93 8 592 0 680 -15 170 -26 278 -33 305 -4 14 -8 34 -9 45 -6 53
-15 102 -21 125 -7 25 -8 34 -16 80 -3 14 -7 32 -11 40 -3 8 -8 29 -10 45 -3
17 -7 40 -10 53 -3 12 -8 32 -11 45 -16 74 -118 397 -156 494 -25 64 -39 97
-84 198 -7 17 -18 45 -25 62 -7 18 -16 30 -21 27 -5 -3 -6 3 -2 12 4 12 3 15
-5 10 -7 -4 -10 -2 -7 6 3 8 -3 23 -14 35 -11 11 -17 24 -14 27 4 3 1 6 -6 6
-7 0 -9 5 -6 10 3 6 1 10 -5 10 -6 0 -9 4 -5 9 3 5 -1 16 -9 24 -8 8 -13 17
-10 20 10 9 -38 87 -49 80 -6 -3 -7 -1 -3 5 9 15 -34 93 -47 85 -6 -3 -7 -1
-3 5 9 15 -18 55 -29 44 -5 -4 -5 -2 -1 5 6 11 -40 94 -56 101 -5 2 -8 9 -8
16 0 7 -7 21 -16 32 -8 10 -12 13 -8 5 4 -9 3 -12 -4 -7 -6 4 -9 13 -6 20 3 8
-5 21 -18 30 -12 9 -18 16 -13 16 6 0 1 7 -10 16 -11 8 -19 17 -17 19 4 8 -50
85 -60 85 -5 0 -6 5 -3 10 3 6 2 10 -2 10 -5 0 -13 8 -18 18 -27 51 -101 140
-113 137 -7 -3 -10 -1 -7 5 7 11 -26 51 -37 44 -4 -3 -6 1 -3 8 3 7 -24 45
-60 83 -35 39 -65 74 -65 78 0 5 -4 6 -9 3 -5 -3 -15 2 -22 11 -12 14 -12 16
1 8 8 -4 6 1 -5 12 -11 11 -41 42 -66 69 -81 85 -249 241 -249 230 0 -3 -20
15 -44 40 -25 24 -48 44 -53 44 -5 0 -15 9 -23 20 -8 11 -18 20 -23 20 -4 0
-19 10 -32 23 -30 28 -41 37 -84 67 -19 14 -42 31 -50 38 -9 7 -19 12 -23 12
-4 0 -19 12 -34 25 -15 14 -32 22 -38 18 -6 -3 -8 -2 -3 2 4 5 -30 33 -75 62
-46 29 -88 57 -95 63 -7 5 -15 10 -19 10 -3 0 -20 10 -37 23 -18 12 -41 27
-52 33 -11 6 -38 21 -60 34 -104 61 -299 160 -316 160 -14 0 -39 26 -32 34 11
11 36 6 57 -11 18 -15 17 -14 -2 8 -21 24 -22 27 -5 40 15 12 16 12 10 -3 -4
-12 -1 -18 9 -18 8 0 13 4 10 9 -6 10 16 21 42 21 12 0 13 -3 4 -12 -17 -17
-15 -28 6 -28 14 0 15 2 2 10 -10 6 -11 10 -2 10 6 0 12 6 12 14 0 8 5 18 12
22 6 4 8 3 5 -3 -7 -11 20 -27 40 -24 6 1 14 -7 18 -18 4 -14 17 -20 48 -23
23 -3 44 -2 47 2 16 20 87 0 74 -21 -6 -11 41 -23 55 -14 6 3 11 1 11 -6 0 -8
3 -9 14 0 10 8 16 8 25 -2 14 -18 64 -10 57 9 -7 18 12 28 27 15 8 -6 18 -6
27 -1 9 6 17 5 22 -3 6 -9 11 -8 18 4 6 10 23 15 54 14 25 -1 46 2 46 7 0 4
-7 8 -15 8 -9 0 -15 9 -15 21 0 15 5 20 23 17 17 -2 22 -9 20 -29 -1 -23 3
-27 30 -32 18 -2 55 -1 84 2 29 4 50 5 48 2 -1 -3 8 -14 20 -24 23 -16 24 -16
34 0 9 17 10 17 28 0 11 -9 23 -17 28 -17 5 0 20 -10 34 -22 14 -13 19 -15 12
-5 -12 15 -9 21 10 19 4 -1 5 8 2 18 -6 21 20 29 32 10 4 -7 13 -7 26 0 16 9
19 7 19 -10 0 -11 7 -20 15 -20 9 0 15 9 15 21 0 14 5 19 18 17 9 -2 16 -10
14 -16 -1 -7 2 -12 8 -12 5 0 10 -7 10 -15 0 -8 6 -15 13 -15 20 0 28 12 17
25 -6 8 4 11 40 10 27 0 52 -4 56 -7 3 -4 12 -4 20 -1 8 3 17 -2 20 -11 3 -9
10 -13 15 -10 5 3 9 -1 9 -8 0 -7 4 -19 9 -27 8 -13 12 -13 26 -1 15 12 19 12
31 -5 16 -21 82 -29 103 -12 11 9 15 9 18 0 3 -7 20 -15 39 -19 21 -4 34 -12
34 -21 0 -13 3 -13 15 -3 8 7 15 19 15 26 0 20 21 13 43 -13 19 -24 47 -31 47
-13 0 20 19 10 22 -12 3 -20 4 -21 20 -5 18 19 33 23 23 7 -3 -5 -1 -10 4 -10
19 0 26 5 23 14 -2 6 2 5 10 0 7 -5 25 -9 41 -8 15 0 27 -3 27 -7 0 -5 7 -9
16 -9 8 0 12 -5 8 -11 -4 -7 1 -7 16 1 13 7 20 8 16 2 -10 -16 45 -7 55 9 7
11 10 9 15 -8 4 -13 10 -23 15 -23 5 0 9 -7 9 -16 0 -8 5 -12 11 -9 6 4 8 13
5 20 -3 8 2 19 10 25 11 10 14 9 14 -3 0 -8 3 -17 8 -20 4 -2 1 -2 -6 0 -8 2
-12 -4 -10 -15 5 -25 32 -21 36 6 4 26 17 29 31 5 7 -12 10 -13 11 -4 0 7 6
11 14 8 8 -3 20 1 26 9 7 8 18 14 25 14 8 0 15 3 18 8 2 4 2 1 1 -5 -2 -7 15
-22 36 -33 22 -11 40 -27 40 -35 0 -19 18 -29 33 -17 17 13 67 21 67 11 0 -5
11 -9 24 -9 14 0 28 -4 31 -10 10 -16 35 -12 29 5 -4 8 -1 15 6 15 6 0 9 -4 5
-9 -3 -5 -1 -12 5 -16 5 -3 10 1 10 9 0 15 29 36 49 36 6 0 11 -10 11 -22 0
-20 1 -21 20 -3 20 18 20 17 16 -16 -3 -26 2 -39 21 -56 31 -29 37 -29 53 2 7
14 20 25 27 25 9 0 11 -5 7 -12 -6 -9 -3 -9 9 1 9 7 24 10 33 7 10 -4 25 1 34
9 16 15 18 14 24 -8 4 -19 11 -23 30 -20 16 3 31 -2 46 -17 12 -12 26 -20 32
-18 6 2 3 11 -7 22 -21 20 -7 43 20 32 13 -4 15 -13 10 -36 -4 -18 -2 -30 3
-30 6 0 17 -3 25 -6 10 -3 17 3 21 20 3 14 11 26 17 26 6 0 7 -4 4 -10 -3 -5
-2 -10 3 -10 15 0 24 -32 12 -40 -7 -5 -6 -11 5 -20 8 -7 15 -9 15 -5 0 5 9 0
19 -9 22 -20 38 -6 23 20 -11 20 -4 54 11 54 5 0 15 -6 21 -14 15 -20 120 -31
113 -13 -3 7 1 23 7 36 11 20 14 20 25 7 9 -11 10 -20 2 -33 -6 -10 -11 -12
-11 -5 0 6 -4 12 -9 12 -5 0 -7 -9 -4 -20 3 -11 1 -20 -4 -20 -5 0 -10 -7 -10
-15 0 -21 3 -19 38 16 18 18 34 27 38 22 3 -6 14 -9 24 -7 9 1 17 -1 17 -6 0
-14 31 -20 51 -10 12 7 19 21 19 40 0 32 9 37 27 19 8 -8 9 -18 0 -36 -9 -19
-7 -27 8 -41 10 -9 15 -12 11 -5 -3 6 -2 14 3 17 5 4 12 -4 14 -16 2 -13 5
419 6 960 l1 982 -5400 0 -5400 0 0 -1041z m5622 -144 c68 -23 76 -40 16 -31
-116 17 -341 26 -503 20 -183 -7 -237 -15 -177 -29 18 -3 30 -11 26 -16 -8
-14 -58 -11 -80 6 -27 21 -53 18 -105 -10 -26 -13 -68 -29 -95 -36 -67 -16
-127 -45 -154 -74 l-22 -24 47 15 c57 17 65 17 65 4 0 -14 -89 -52 -102 -44
-5 3 -19 -3 -31 -14 -24 -22 -77 -46 -85 -38 -3 3 0 12 6 19 7 8 10 16 7 19
-3 3 3 11 12 19 17 13 17 13 3 -6 -15 -20 -14 -20 8 -1 29 25 28 34 -8 54 -16
9 -30 20 -30 25 0 4 20 17 45 29 40 19 43 23 25 30 -34 13 -23 29 18 26 24 -2
36 -8 34 -16 -3 -16 17 -11 98 25 36 16 87 27 150 33 52 5 122 14 155 21 33 6
85 9 115 6 30 -2 78 -1 105 4 28 4 129 6 225 5 144 -1 185 -5 232 -21z m306 3
c29 -15 28 -26 -3 -34 -24 -6 -155 34 -155 47 0 10 132 -1 158 -13z m-23 -59
c242 -52 230 -48 238 -79 3 -11 1 -18 -3 -15 -5 3 -12 0 -16 -6 -5 -8 1 -10
19 -7 33 6 42 0 51 -37 4 -19 3 -25 -2 -16 -6 8 -12 9 -16 3 -3 -6 11 -19 31
-29 29 -13 38 -24 39 -44 1 -26 43 -93 52 -84 3 3 -5 16 -18 30 -16 17 -23 36
-22 55 2 20 -4 33 -20 44 -12 9 -20 16 -18 16 15 0 105 -32 119 -41 9 -7 -4 8
-29 32 -25 24 -55 50 -65 57 -11 7 -6 5 11 -5 18 -10 54 -36 82 -58 27 -22 63
-48 80 -57 30 -16 55 -68 36 -75 -32 -11 -39 -22 -26 -43 11 -18 9 -24 -11
-46 -33 -35 -89 -53 -135 -43 -20 5 -66 15 -102 23 -45 10 -79 12 -110 6 -52
-10 -158 -13 -383 -11 l-158 1 23 41 c29 52 30 53 146 110 l97 48 -44 0 c-30
1 -58 -7 -86 -24 -23 -13 -67 -34 -98 -45 -49 -18 -59 -28 -89 -78 l-34 -57
-63 -8 c-55 -7 -65 -5 -78 10 -8 10 -12 12 -8 5 13 -26 -16 -42 -76 -42 -65 0
-76 14 -41 53 16 19 16 20 -1 14 -88 -32 -133 -39 -176 -28 -69 18 -149 58
-160 80 -13 24 -14 101 -2 120 7 10 24 12 67 8 37 -4 48 -3 28 2 -17 4 -36 11
-42 15 -19 12 -14 47 7 53 11 3 21 13 24 23 7 29 147 87 276 116 64 14 118 28
121 31 8 7 542 -9 585 -18z m-5225 -14 c0 -8 -2 -15 -4 -15 -2 0 -6 7 -10 15
-3 8 -1 15 4 15 6 0 10 -7 10 -15z m6370 -39 c0 -22 -16 -36 -41 -36 -10 0
-12 43 -2 53 3 4 15 7 25 7 12 0 18 -7 18 -24z m340 -22 c14 -35 13 -42 -8
-53 -26 -14 -66 8 -70 38 -7 46 62 59 78 15z m-1170 -30 c0 -2 -9 0 -20 6 -11
6 -20 13 -20 16 0 2 9 0 20 -6 11 -6 20 -13 20 -16z m193 -53 c21 -20 48 -49
59 -66 12 -16 -13 4 -55 45 -100 97 -102 112 -4 21z m-5877 6 c7 -23 -20 -50
-46 -45 -22 4 -25 49 -5 64 21 16 42 8 51 -19z m6487 -14 c-7 -2 -19 -2 -25 0
-7 3 -2 5 12 5 14 0 19 -2 13 -5z m817 -3 c0 -5 -4 -10 -10 -10 -5 0 -10 5
-10 10 0 6 5 10 10 10 6 0 10 -4 10 -10z m696 -1 c10 -17 -13 -36 -27 -22 -12
12 -4 33 11 33 5 0 12 -5 16 -11z m1099 -20 c4 -6 5 -12 2 -15 -7 -7 -37 7
-37 17 0 13 27 11 35 -2z m-5219 -30 c3 -6 15 -9 25 -6 11 3 19 1 19 -4 0 -5
-8 -9 -19 -9 -10 0 -24 -7 -31 -15 -17 -20 11 -63 51 -78 36 -14 32 -29 -12
-44 -19 -7 -26 -12 -17 -12 9 -1 28 3 42 9 32 12 36 50 6 50 -22 0 -70 41 -70
60 0 19 32 23 64 8 17 -9 39 -19 48 -22 9 -3 21 -20 26 -38 5 -22 15 -34 29
-36 12 -2 27 -10 33 -17 14 -17 9 -19 -52 -30 -31 -5 -38 -10 -37 -28 1 -17 2
-18 6 -4 6 21 19 22 27 2 3 -10 19 -15 45 -15 22 0 85 -9 141 -20 56 -11 112
-20 125 -20 13 0 46 -19 75 -44 34 -29 64 -46 91 -50 53 -8 89 -45 89 -89 0
-57 21 -63 70 -22 23 19 45 35 50 35 4 0 15 -12 25 -26 17 -27 70 -54 105 -54
12 0 40 18 63 41 42 41 43 41 102 36 37 -3 88 -17 132 -36 83 -36 104 -38 120
-12 11 18 16 19 65 6 57 -16 79 -8 71 25 -8 29 11 25 84 -16 105 -58 169 -35
104 39 -42 48 -19 64 44 31 17 -9 46 -22 65 -29 19 -8 27 -14 17 -14 -10 -1
-40 10 -67 24 -65 33 -93 34 -60 3 26 -25 27 -25 65 -27 24 -1 38 -31 14 -31
-6 0 -9 -8 -7 -17 2 -10 -3 -23 -11 -29 -11 -9 -7 -13 23 -18 35 -7 37 -8 20
-21 -17 -12 -16 -14 16 -23 19 -6 27 -11 18 -11 -38 -2 -15 -18 45 -30 51 -12
58 -15 37 -21 -23 -6 -23 -7 -5 -12 11 -4 35 -9 52 -13 43 -9 52 -25 14 -25
-17 0 -31 -4 -31 -10 0 -5 8 -10 18 -10 11 0 45 -9 77 -20 32 -11 60 -19 61
-17 9 9 -17 29 -40 30 -16 1 -24 7 -22 14 3 6 1 14 -5 17 -5 2 -4 3 3 1 7 -2
32 -9 56 -16 23 -6 42 -16 42 -21 0 -5 -4 -6 -10 -3 -5 3 -10 -3 -10 -14 0
-14 8 -22 28 -27 46 -10 53 -14 47 -23 -3 -6 3 -15 14 -21 25 -13 38 5 14 19
-16 9 -16 10 -2 11 9 0 22 6 28 14 10 12 8 17 -8 25 -27 15 -34 14 -28 -3 6
-16 -2 -28 -14 -20 -5 3 -4 14 1 24 9 16 5 22 -22 36 -66 34 -174 112 -210
152 -47 53 -66 89 -70 138 l-3 39 60 5 c66 6 79 21 51 62 -9 12 -16 29 -16 37
0 24 51 91 82 107 36 19 45 56 24 103 l-17 36 23 -26 c13 -15 56 -46 96 -68
39 -23 72 -46 72 -51 0 -13 -42 -40 -62 -40 -34 0 -68 -23 -67 -44 1 -17 2
-18 6 -3 2 9 8 17 13 17 17 0 195 -61 204 -71 6 -5 18 -9 27 -9 45 0 418 -171
609 -279 44 -25 77 -38 88 -34 15 6 15 5 4 -10 -26 -31 -53 -31 -77 -1 -27 33
-45 25 -45 -21 0 -94 33 -116 193 -125 114 -7 214 -31 203 -49 -3 -4 10 -7 27
-6 23 0 35 6 44 25 8 16 13 19 13 9 0 -9 -9 -24 -20 -34 -11 -10 -20 -21 -20
-24 0 -3 17 -17 38 -31 66 -44 93 -68 79 -74 -6 -3 4 -4 23 -3 l35 2 -3 74
c-3 58 -1 72 10 69 7 -3 13 -15 12 -27 -1 -40 18 -4 23 43 3 25 10 46 15 46 5
0 7 -4 4 -9 -3 -5 16 -28 44 -51 27 -23 50 -39 50 -35 0 4 24 -14 53 -41 28
-26 51 -51 49 -56 -1 -5 1 -7 5 -5 5 3 17 -1 28 -9 10 -8 15 -14 10 -14 -5 0
39 -48 98 -106 l107 -105 -30 -26 c-19 -15 -38 -23 -50 -20 -14 4 -31 -10 -66
-57 -27 -33 -38 -53 -27 -43 20 18 21 18 35 -1 11 -17 35 -44 143 -166 11 -13
33 -39 49 -59 33 -43 43 -45 56 -14 l10 22 -3 -24 c-2 -19 -12 -28 -49 -40
-64 -21 -76 -36 -84 -101 -6 -56 -1 -75 42 -152 14 -25 13 -31 -2 -63 -23 -50
-50 -65 -111 -65 -68 0 -83 -16 -83 -84 0 -40 -8 -68 -32 -115 l-32 -63 19
-75 20 -75 60 -19 c50 -15 71 -30 125 -85 66 -67 161 -131 210 -141 37 -7 70
26 70 70 0 17 -9 57 -21 86 -24 66 -16 96 30 106 16 3 42 18 57 31 25 24 26
29 21 85 -7 63 4 109 27 109 7 0 24 8 36 18 27 22 22 44 -20 97 -18 23 -29 48
-29 64 2 23 2 24 6 3 2 -12 20 -45 39 -73 19 -28 34 -62 34 -76 0 -14 9 -41
21 -59 16 -26 19 -44 15 -77 -4 -37 -3 -35 9 13 18 67 41 201 51 295 6 53 9
63 13 40 3 -16 26 -64 50 -105 45 -75 212 -423 226 -470 4 -14 13 -38 21 -55
18 -40 100 -286 119 -355 107 -398 144 -651 152 -1055 3 -159 9 -295 14 -300
4 -6 4 -16 0 -24 -5 -8 -13 4 -21 36 -8 26 -49 131 -92 232 -43 102 -85 208
-94 237 -8 29 -21 58 -29 64 -13 11 -15 2 -13 -61 l1 -74 6 65 6 65 14 -75
c10 -58 12 -133 7 -325 -3 -137 -9 -264 -12 -282 -5 -25 -2 -32 13 -35 10 -3
-9 -7 -42 -9 l-60 -4 -63 58 c-40 37 -69 57 -78 53 -9 -3 -19 -6 -23 -6 -4 0
-7 -8 -8 -17 -1 -10 -11 -40 -23 -68 -12 -27 -33 -88 -47 -135 -14 -47 -29
-90 -35 -97 -5 -7 -7 -17 -4 -22 4 -5 2 -12 -4 -16 -6 -4 -7 -11 -4 -17 4 -6
1 -14 -6 -18 -8 -5 -15 -53 -21 -131 -18 -237 -37 -298 -95 -299 -37 0 -65 42
-71 109 -6 60 -23 96 -23 48 0 -14 -7 -44 -15 -68 -9 -24 -14 -52 -12 -61 3
-9 -1 -19 -9 -22 -9 -4 -15 -24 -16 -63 l-1 -58 -7 55 c-5 40 -7 18 -8 -85 -1
-77 -2 -155 -2 -172 -1 -18 -1 -40 -1 -48 0 -8 0 -34 -1 -57 0 -24 3 -52 7
-62 7 -16 5 -18 -9 -13 -15 6 -16 5 -2 -14 8 -12 12 -27 10 -34 -3 -7 -1 -30
5 -51 8 -28 7 -40 -1 -45 -9 -6 -8 -11 1 -23 16 -19 1 -22 -18 -4 -8 7 -12 8
-10 3 8 -22 97 -95 116 -95 11 0 34 13 51 30 18 16 35 30 39 30 5 1 27 5 51 9
23 5 42 7 42 5 0 -15 -35 -72 -42 -68 -4 3 -5 -3 -1 -12 5 -13 3 -15 -7 -9 -9
5 -11 4 -6 -3 11 -18 -4 -37 -16 -21 -7 11 -8 9 -4 -4 6 -19 -9 -57 -28 -69
-6 -4 -11 -11 -11 -15 0 -5 -6 -15 -13 -23 -7 -8 -41 -53 -74 -100 -33 -47
-65 -84 -70 -82 -5 1 -7 -2 -3 -7 6 -10 -91 -173 -106 -179 -5 -2 -6 -9 -3
-14 4 -6 2 -8 -4 -4 -6 3 -18 -4 -26 -16 -20 -28 -20 -50 -1 -24 8 11 15 15
15 9 0 -13 -25 -35 -32 -27 -3 2 -43 -39 -89 -93 -45 -54 -92 -107 -103 -118
-12 -12 -37 -38 -56 -60 l-35 -39 50 40 c55 45 75 58 75 50 0 -14 -242 -186
-252 -180 -6 4 -8 3 -5 -3 10 -16 -76 -91 -129 -113 -51 -22 -155 -27 -217 -9
-20 5 -53 26 -72 45 -48 48 -48 93 0 164 36 54 47 117 25 150 -8 11 -9 6 -8
-20 3 -31 0 -35 -22 -36 -31 0 -70 -24 -70 -43 0 -11 -3 -11 -15 -1 -12 10
-18 10 -30 0 -8 -7 -13 -16 -10 -20 3 -5 0 -12 -6 -16 -8 -4 -9 -3 -5 4 10 16
-7 15 -22 0 -10 -10 -15 -10 -22 2 -8 13 -12 13 -36 -1 -26 -16 -31 -37 -7
-31 7 2 13 -4 13 -13 0 -8 -7 -15 -15 -15 -8 0 -15 4 -15 9 0 5 -11 16 -25 25
-24 16 -27 16 -51 -3 -14 -11 -20 -22 -14 -26 15 -9 12 -22 -5 -22 -8 0 -11 5
-8 11 3 6 -5 1 -19 -12 -13 -12 -29 -22 -35 -22 -6 0 -13 -5 -15 -12 -3 -7
-12 -6 -30 6 -23 15 -27 15 -41 1 -9 -8 -20 -15 -26 -15 -6 0 -11 -5 -11 -11
0 -5 5 -7 10 -4 25 15 69 23 64 12 -10 -24 -54 -49 -68 -38 -9 7 -23 5 -51
-10 -34 -19 -39 -19 -47 -5 -7 13 -13 14 -29 6 -11 -6 -24 -8 -30 -4 -8 4 -8
0 0 -14 8 -15 8 -23 -1 -28 -7 -4 -8 -3 -4 4 4 7 -3 10 -23 7 -24 -3 -28 0
-24 16 3 10 0 19 -6 19 -6 0 -11 -6 -11 -14 0 -8 -5 -18 -12 -22 -7 -4 -8 -3
-4 4 11 18 -3 15 -40 -9 -27 -16 -33 -17 -28 -5 7 18 -24 35 -35 20 -11 -16
-80 -48 -87 -41 -4 4 1 7 12 7 18 1 17 2 -4 20 -20 17 -25 17 -52 3 -17 -8
-30 -18 -30 -22 0 -4 -25 -18 -55 -30 l-55 -23 -18 22 c-17 21 -18 21 -59 5
-41 -16 -43 -16 -68 3 -24 19 -28 19 -65 5 -37 -15 -43 -15 -96 6 l-56 21 -85
-25 c-47 -13 -129 -32 -182 -41 -53 -9 -99 -21 -103 -28 -4 -6 -8 -23 -8 -37
0 -24 -4 -27 -51 -33 -48 -7 -50 -8 -35 -25 9 -10 16 -20 16 -23 0 -3 -23 -8
-51 -12 -50 -7 -51 -7 -30 -25 12 -10 21 -21 21 -25 0 -3 -29 -6 -65 -6 -41 0
-65 -4 -65 -11 0 -8 -6 -7 -17 2 -9 8 -36 14 -60 14 -41 0 -43 -1 -24 -14 38
-25 26 -41 -30 -41 -33 0 -48 -4 -44 -11 4 -6 13 -8 20 -5 8 3 11 -2 8 -13 -3
-12 -12 -17 -26 -15 -36 5 -118 11 -115 8 2 -1 5 -2 8 -1 3 0 15 -5 28 -12 26
-14 19 -35 -9 -28 -10 3 -21 2 -24 -2 -5 -9 -36 -8 -53 3 -15 9 -16 36 -1 36
5 0 7 -4 4 -10 -3 -5 -4 -10 -1 -10 2 0 13 -3 23 -7 15 -6 16 -4 6 9 -7 8 -10
18 -6 21 3 4 -7 7 -23 7 -25 0 -29 -4 -30 -31 -1 -21 3 -29 12 -25 8 3 14 1
14 -4 0 -6 7 -10 16 -10 8 0 12 -4 9 -10 -8 -12 -62 -13 -69 -1 -7 11 -44 3
-52 -11 -3 -5 0 -9 7 -7 27 3 49 -1 49 -10 0 -5 -17 -7 -37 -6 -21 2 -50 4
-64 4 -16 1 -26 7 -26 16 0 17 6 18 27 5 9 -6 17 -5 22 3 15 23 8 30 -26 24
-20 -3 -39 0 -45 6 -9 9 -11 8 -6 -4 10 -26 -35 -54 -138 -88 -51 -17 -98 -31
-105 -31 -7 0 -46 -16 -87 -36 -53 -26 -113 -44 -220 -65 -197 -39 -264 -70
-300 -140 -9 -16 -28 -30 -53 -37 -46 -14 -75 -15 -68 -4 3 5 -21 16 -52 26
-31 9 -66 21 -77 26 -11 5 -40 16 -65 24 -25 8 -67 24 -95 36 -167 73 -233
104 -257 121 -14 10 -31 19 -37 19 -6 0 -48 21 -93 46 -46 26 -100 56 -121 67
-21 12 -46 29 -57 39 -10 10 -24 18 -30 18 -10 0 -21 8 -55 37 -7 7 -21 10
-29 7 -15 -6 -86 38 -94 58 -2 4 -10 8 -17 8 -7 0 -27 13 -45 30 -18 16 -36
30 -42 30 -5 0 -6 5 -2 12 5 7 3 8 -5 4 -16 -10 -51 22 -44 40 6 16 -13 19
-23 3 -3 -6 11 -30 33 -52 62 -67 82 -97 26 -40 -28 29 -71 77 -94 108 -23 31
-51 60 -61 66 -10 5 -16 14 -13 18 2 5 -3 8 -13 7 -12 -1 -32 29 -72 110 -30
62 -62 120 -71 130 -9 11 -19 36 -22 57 -6 36 -131 247 -147 247 -5 0 -4 -17
1 -37 15 -64 12 -73 -21 -73 -24 0 -38 12 -84 69 -31 39 -60 72 -65 75 -5 4
-3 19 5 35 20 39 6 71 -75 180 -34 46 -64 95 -67 109 -12 57 -34 128 -44 142
-9 13 -11 13 -20 0 -23 -35 15 -137 98 -264 62 -93 67 -126 21 -126 -29 0 -57
21 -99 77 -23 30 -62 53 -90 54 -21 0 -22 2 -7 8 17 6 17 8 3 20 -9 7 -16 18
-16 23 0 5 -12 25 -26 43 -14 19 -23 39 -19 45 4 6 -7 10 -29 10 -37 0 -258
81 -238 88 12 4 4 25 -38 102 -57 106 -176 374 -220 494 -53 148 -134 419
-150 506 -5 25 -16 77 -24 116 -30 137 -66 428 -78 621 -12 200 -3 453 24 661
9 78 14 92 27 87 9 -4 2 9 -15 27 -47 49 -66 95 -72 169 -7 102 12 162 69 222
46 48 50 50 91 44 31 -4 38 -3 26 4 -22 12 -22 31 -4 84 8 22 29 90 46 150 58
193 109 319 236 580 51 105 111 219 133 255 22 36 44 72 48 80 8 18 76 125
101 159 9 14 34 48 54 75 20 28 47 66 60 84 38 53 167 213 214 265 25 27 42
53 38 58 -3 5 -1 8 4 7 6 -2 52 40 103 92 128 129 268 260 278 260 5 0 11 3
13 8 3 7 100 88 168 140 17 13 27 28 24 34 -4 7 -2 8 5 4 6 -4 28 5 49 22 20
16 48 35 62 42 14 7 35 24 48 37 l22 24 0 -24 c0 -13 -13 -64 -28 -113 -16
-49 -34 -108 -41 -132 -8 -30 -34 -65 -86 -122 -41 -44 -75 -83 -75 -87 0 -9
115 112 137 144 8 12 38 38 66 58 29 19 77 53 107 75 30 22 78 53 105 70 55
33 70 42 130 81 22 14 45 28 51 32 6 4 10 -4 9 -21 -2 -17 -1 -19 2 -5 2 12
16 33 30 47 56 56 352 187 605 266 119 38 169 69 199 124 46 87 -9 106 -160
56 -107 -36 -174 -38 -179 -5 -2 12 0 16 5 9 6 -9 24 -6 68 11 60 23 197 66
330 104 39 11 77 22 85 25 24 7 28 7 36 -5z m3091 -11 c-3 -8 -6 -5 -6 6 -1
11 2 17 5 13 3 -3 4 -12 1 -19z m723 -8 c18 0 21 -3 11 -9 -7 -5 -10 -14 -6
-21 6 -9 3 -9 -14 0 -12 6 -25 18 -28 26 -3 7 -10 11 -16 7 -6 -4 -7 -1 -2 6
5 9 10 10 18 2 6 -6 22 -11 37 -11z m-5386 -5 c3 -8 1 -15 -4 -15 -6 0 -10 7
-10 15 0 8 2 15 4 15 2 0 6 -7 10 -15z m7311 -25 c0 -8 -10 -16 -22 -18 -22
-3 -32 16 -16 32 12 11 38 2 38 -14z m-6908 -24 c32 6 34 5 25 -13 -8 -14 -23
-20 -57 -22 -45 -2 -85 -27 -85 -52 0 -16 52 -2 68 18 6 9 12 12 12 6 0 -16
41 -4 68 21 13 11 25 20 28 19 12 -8 22 -1 27 17 4 16 12 20 36 18 17 -1 31
-8 31 -15 0 -15 -31 -32 -48 -26 -7 3 -24 -7 -37 -22 -25 -26 -36 -50 -13 -27
16 16 27 15 24 -2 -2 -16 -27 -40 -46 -44 -8 -2 -17 -7 -20 -11 -3 -4 -20 -13
-37 -20 -18 -8 -33 -17 -33 -22 0 -5 -6 -9 -14 -9 -8 0 -21 -6 -28 -13 -7 -7
-25 -18 -40 -24 -16 -7 -28 -17 -28 -23 0 -5 -9 -10 -20 -10 -11 0 -20 -4 -20
-10 0 -5 -6 -10 -13 -10 -7 0 -23 -9 -35 -20 -12 -11 -24 -20 -28 -20 -3 0
-19 -9 -35 -21 -16 -11 -33 -17 -39 -14 -6 3 -7 -1 -4 -10 5 -11 0 -18 -15
-22 -11 -3 -21 -9 -21 -14 0 -5 -5 -9 -10 -9 -6 0 -8 11 -6 25 3 14 0 25 -5
25 -5 0 -9 5 -9 10 0 6 3 9 8 9 27 -5 52 2 46 13 -5 7 -2 9 8 5 16 -6 19 15 5
29 -11 11 -8 44 4 44 5 0 7 6 3 13 -6 9 -3 8 8 -1 15 -12 19 -9 32 16 14 28
14 30 -2 27 -9 -1 -11 0 -4 2 6 3 12 10 12 16 0 7 8 3 17 -8 15 -20 15 -20 10
3 -3 12 -1 22 5 22 5 0 6 5 2 11 -5 8 1 10 20 7 18 -4 29 -1 33 8 3 8 9 11 14
8 5 -3 9 9 9 25 0 29 2 31 40 31 31 0 40 4 40 17 0 9 3 14 6 10 8 -8 33 16 27
25 -2 4 2 5 10 2 8 -3 18 3 22 13 5 12 9 14 12 5 3 -9 16 -11 40 -6z m5033 4
c0 -5 -5 -10 -11 -10 -5 0 -7 5 -4 10 3 6 8 10 11 10 2 0 4 -4 4 -10z m-5650
-4 c0 -11 -19 -15 -25 -6 -3 5 1 10 9 10 9 0 16 -2 16 -4z m-1315 -41 c0 -23
-5 -30 -19 -30 -24 0 -41 27 -33 49 4 11 15 16 29 14 18 -2 23 -9 23 -33z
m1605 11 c0 -3 -4 -8 -10 -11 -5 -3 -10 -1 -10 4 0 6 5 11 10 11 6 0 10 -2 10
-4z m6363 -35 c-1 -33 -19 -55 -35 -45 -4 3 -8 23 -8 45 0 36 2 40 23 37 18
-2 22 -9 20 -37z m-5893 18 c0 -10 -24 -39 -33 -39 -3 0 0 11 6 25 12 25 27
33 27 14z m-792 -27 c2 -14 -2 -22 -12 -22 -19 0 -29 17 -22 36 8 22 30 12 34
-14z m6545 -39 c-13 -2 -33 -2 -45 0 -13 2 -3 4 22 4 25 0 35 -2 23 -4z
m-7951 -55 c-16 -16 -37 4 -28 28 6 16 8 16 23 1 13 -13 15 -19 5 -29z m-372
-8 c0 -5 -4 -10 -10 -10 -5 0 -10 5 -10 10 0 6 5 10 10 10 6 0 10 -4 10 -10z
m9385 -10 c3 -5 1 -10 -4 -10 -6 0 -11 5 -11 10 0 6 2 10 4 10 3 0 8 -4 11
-10z m-7487 -93 c-2 -16 -10 -22 -27 -22 -21 0 -24 5 -28 53 l-4 54 31 -32
c20 -20 30 -40 28 -53z m-1044 17 c9 -23 8 -24 -14 -24 -19 0 -27 20 -13 33
11 11 20 8 27 -9z m8846 -26 c0 -30 -21 -56 -42 -50 -22 6 -24 47 -2 60 25 14
44 10 44 -10z m-10230 -4 c0 -8 -5 -12 -10 -9 -6 4 -8 11 -5 16 9 14 15 11 15
-7z m9675 6 c3 -5 1 -10 -4 -10 -6 0 -11 5 -11 10 0 6 2 10 4 10 3 0 8 -4 11
-10z m-7185 -36 c0 -8 -7 -14 -15 -14 -15 0 -21 21 -9 33 10 9 24 -2 24 -19z
m-202 -6 c-3 -7 -11 -13 -18 -13 -7 0 -15 6 -17 13 -3 7 4 12 17 12 13 0 20
-5 18 -12z m-1934 -31 c8 -13 6 -21 -11 -36 -20 -19 -21 -19 -32 6 -20 44 18
70 43 30z m5646 19 c0 -2 -8 -10 -17 -17 -16 -13 -17 -12 -4 4 13 16 21 21 21
13z m4420 -30 c0 -11 -19 -15 -25 -6 -3 5 1 10 9 10 9 0 16 -2 16 -4z m-9960
-36 c0 -5 -4 -10 -10 -10 -5 0 -10 5 -10 10 0 6 5 10 10 10 6 0 10 -4 10 -10z
m-582 -31 c24 -25 18 -52 -14 -69 -20 -11 -27 -11 -44 5 -25 23 -25 25 5 58
31 32 29 32 53 6z m569 -3 c0 -8 -9 -14 -19 -13 -18 1 -18 2 -2 14 22 16 21
16 21 -1z m6853 -106 c0 -5 -5 -10 -11 -10 -5 0 -7 5 -4 10 3 6 8 10 11 10 2
0 4 -4 4 -10z m-37 -17 c-7 -2 -19 -2 -25 0 -7 3 -2 5 12 5 14 0 19 -2 13 -5z
m-1059 -39 c20 -8 21 -23 1 -20 -19 3 -44 26 -28 26 6 0 18 -3 27 -6z m1897
-161 c13 -16 12 -17 -3 -4 -10 7 -18 15 -18 17 0 8 8 3 21 -13z m476 -1125
c-3 -7 -5 -2 -5 12 0 14 2 19 5 13 2 -7 2 -19 0 -25z m780 -2400 c-3 -7 -5 -2
-5 12 0 14 2 19 5 13 2 -7 2 -19 0 -25z m-21 -115 c-14 -26 -32 -130 -43 -243
-2 -25 -6 -62 -9 -82 -5 -29 -2 -39 10 -44 9 -3 16 -11 16 -16 0 -7 -5 -6 -13
1 -16 13 -27 5 -27 -20 0 -10 -4 -20 -8 -23 -5 -3 -5 16 -1 42 4 26 8 104 8
174 1 126 1 128 -28 160 l-29 33 45 1 c31 1 51 7 66 22 28 29 31 28 13 -5z
m-9252 -230 c3 -8 -2 -13 -13 -13 -10 0 -18 6 -18 13 0 8 6 14 13 14 7 0 15
-6 18 -14z m33 -278 c0 -8 -7 -15 -15 -15 -12 0 -12 3 -2 15 7 8 13 15 15 15
1 0 2 -7 2 -15z m30 -20 c0 -8 -4 -12 -9 -9 -5 3 -6 10 -3 15 9 13 12 11 12
-6z m9070 -17 c-3 -8 -6 -5 -6 6 -1 11 2 17 5 13 3 -3 4 -12 1 -19z m-8840
-33 c0 -8 -4 -12 -9 -9 -5 3 -6 10 -3 15 9 13 12 11 12 -6z m23 -55 c0 -5 -5
-10 -11 -10 -5 0 -8 -4 -5 -9 3 -5 -1 -11 -9 -15 -16 -6 -19 3 -9 28 7 17 34
22 34 6z m145 0 c3 -5 1 -10 -4 -10 -6 0 -11 5 -11 10 0 6 2 10 4 10 3 0 8 -4
11 -10z m-98 -6 c-3 -3 -12 -4 -19 -1 -8 3 -5 6 6 6 11 1 17 -2 13 -5z m180
-26 c-3 -7 -5 -2 -5 12 0 14 2 19 5 13 2 -7 2 -19 0 -25z m137 -40 c-3 -4 0
-8 5 -8 6 0 11 -4 11 -10 0 -8 -17 -8 -48 -1 -2 1 0 7 5 14 4 6 8 15 9 20 1 4
2 10 3 15 1 4 5 0 10 -8 6 -8 7 -18 5 -22z m-387 7 c0 -8 -4 -15 -9 -15 -4 0
-8 7 -8 15 0 8 4 15 8 15 5 0 9 -7 9 -15z m33 -9 c0 -3 -4 -8 -10 -11 -5 -3
-10 -1 -10 4 0 6 5 11 10 11 6 0 10 -2 10 -4z m453 -92 c-2 -7 -17 -14 -32
-16 -20 -3 -27 0 -27 13 0 10 6 15 14 12 8 -3 15 3 19 16 5 20 6 20 18 4 7 -9
11 -23 8 -29z m-69 -80 c3 -8 2 -12 -4 -9 -6 3 -10 10 -10 16 0 14 7 11 14 -7z
m9337 -56 c12 -10 16 -18 10 -18 -15 0 -61 49 -61 64 0 6 7 2 15 -9 9 -11 25
-28 36 -37z m158 -9 l15 -24 -26 23 c-23 21 -26 21 -32 6 -4 -9 -9 -14 -13
-11 -8 9 18 38 30 34 6 -2 17 -14 26 -28z m66 -19 c3 -5 1 -10 -4 -10 -6 0
-11 5 -11 10 0 6 2 10 4 10 3 0 8 -4 11 -10z m-25 -18 c0 -5 -7 -9 -15 -9 -8
0 -12 4 -9 9 3 4 9 8 15 8 5 0 9 -4 9 -8z m30 -12 c0 -5 -5 -10 -11 -10 -5 0
-7 5 -4 10 3 6 8 10 11 10 2 0 4 -4 4 -10z m-9485 -10 c-3 -5 -13 -10 -21 -10
-8 0 -14 5 -14 10 0 6 9 10 21 10 11 0 17 -4 14 -10z m7634 -92 c-7 -13 -16
-39 -20 -58 -6 -32 -7 -32 -8 -7 -1 26 23 87 35 87 2 0 -1 -10 -7 -22z m18
-104 c-3 -3 -12 -4 -19 -1 -8 3 -5 6 6 6 11 1 17 -2 13 -5z m800 -236 c-3 -8
-6 -5 -6 6 -1 11 2 17 5 13 3 -3 4 -12 1 -19z m-84 -73 c-3 -9 -8 -14 -10 -11
-3 3 -2 9 2 15 9 16 15 13 8 -4z m-112 -125 c10 0 13 -33 3 -42 -13 -14 -41 5
-41 28 0 18 4 24 14 20 8 -3 19 -6 24 -6z m-180 -133 c-10 -9 -11 -8 -5 6 3
10 9 15 12 12 3 -3 0 -11 -7 -18z m-7734 -41 c23 -20 33 -76 13 -76 -5 0 -11
5 -11 10 -3 22 -5 26 -19 46 -8 11 -24 24 -35 28 -16 6 -17 9 -5 16 15 9 22 7
57 -24z m7692 -33 c-273 -483 -674 -934 -1145 -1290 -332 -251 -755 -477
-1168 -622 -49 -17 -91 -30 -93 -27 -2 2 20 12 49 21 108 35 336 129 473 195
700 336 1312 866 1739 1510 56 85 117 181 135 213 18 31 35 57 37 57 3 0 -9
-26 -27 -57z m1361 -143 c24 -24 25 -48 4 -78 -18 -26 -37 -28 -58 -6 -20 20
-20 53 0 82 19 27 28 28 54 2z m-1960 -107 c0 -5 -10 -19 -21 -33 l-21 -25 18
33 c18 32 24 38 24 25z m2054 -55 c22 -31 20 -84 -3 -107 -22 -22 -51 -19 -77
10 -20 22 -15 76 11 115 13 20 19 22 35 14 10 -6 26 -20 34 -32z m-762 -65
c20 -18 24 -73 6 -91 -18 -18 -39 -15 -65 10 -27 25 -29 45 -7 76 18 26 41 28
66 5z m-2512 -297 c0 -3 -4 -8 -10 -11 -5 -3 -10 -1 -10 4 0 6 5 11 10 11 6 0
10 -2 10 -4z m-376 -97 c-3 -5 -13 -9 -22 -8 -11 0 -12 2 -4 6 6 2 10 9 7 14
-4 5 1 6 9 3 9 -3 13 -10 10 -15z m-234 -30 c0 -5 -9 -9 -20 -9 -19 0 -27 20
-13 33 7 8 33 -11 33 -24z m-4420 -146 c0 -8 -9 0 -50 45 l-45 47 48 -45 c26
-24 47 -45 47 -47z m3340 -114 c0 -5 8 -9 18 -9 14 0 15 -2 2 -10 -20 -13 -43
-13 -35 0 3 6 0 10 -8 10 -8 0 -17 6 -20 13 -4 10 2 13 19 9 13 -2 24 -8 24
-13z m-70 -19 c0 -5 -4 -10 -10 -10 -5 0 -10 5 -10 10 0 6 5 10 10 10 6 0 10
-4 10 -10z m-22 -38 c2 -7 -1 -12 -8 -12 -6 0 -9 4 -6 9 4 5 1 12 -4 14 -6 3
-5 4 2 3 6 -1 14 -8 16 -14z m-58 -46 c-7 -7 -14 -6 -21 1 -9 9 -7 12 9 10 14
-1 18 -5 12 -11z m37 -25 c43 -11 153 -50 153 -55 0 -1 -11 -40 -25 -86 -36
-121 -34 -155 14 -200 l38 -36 -29 -13 c-45 -20 -81 -83 -82 -142 -1 -27 -2
-45 -4 -39 -2 6 -95 9 -235 9 -128 0 -277 5 -332 11 -55 6 -143 15 -195 20
-52 5 -173 25 -269 45 -132 26 -177 32 -188 24 -20 -17 -6 18 24 59 57 76 149
106 243 78 61 -18 138 -21 190 -6 38 10 91 42 229 136 83 57 116 73 181 88 23
5 25 9 22 49 -4 49 9 66 60 76 35 7 141 -2 205 -18z m-473 -16 c-4 -8 -11 -15
-16 -15 -6 0 -5 6 2 15 7 8 14 15 16 15 2 0 1 -7 -2 -15z m-2363 -72 c13 -16
12 -17 -3 -4 -17 13 -22 21 -14 21 2 0 10 -8 17 -17z m119 -89 c0 -3 -13 4
-30 16 -16 12 -30 24 -30 26 0 3 14 -4 30 -16 17 -12 30 -24 30 -26z m130 -90
c0 -2 -27 14 -60 36 -33 22 -60 43 -60 46 0 2 27 -14 60 -36 33 -22 60 -43 60
-46z m65 -39 l20 -16 -20 10 c-11 5 -29 17 -40 26 l-20 16 20 -10 c11 -5 29
-17 40 -26z m118 -69 c26 -15 47 -30 47 -33 0 -6 -96 49 -123 71 l-22 18 25
-14 c14 -8 46 -27 73 -42z m934 -22 c-3 -3 -12 -4 -19 -1 -8 3 -5 6 6 6 11 1
17 -2 13 -5z m-777 -69 c0 -3 -22 6 -50 20 -27 14 -50 28 -50 30 0 3 23 -6 50
-20 28 -14 50 -28 50 -30z m3145 25 c14 -6 7 -7 -21 -4 -47 7 -179 -18 -225
-42 -17 -8 -33 -13 -36 -11 -6 7 29 25 91 47 54 20 157 25 191 10z m-3009 -98
c-5 -4 -86 36 -86 43 0 3 20 -5 45 -17 24 -12 43 -23 41 -26z m2684 13 c0 -2
-10 -9 -22 -15 -22 -11 -22 -10 -4 4 21 17 26 19 26 11z m-2580 -55 c19 -11
31 -19 25 -19 -5 0 -26 8 -45 19 -19 11 -30 19 -25 19 6 0 26 -8 45 -19z m100
-45 c14 -8 21 -14 15 -14 -5 0 -21 6 -35 14 -14 8 -20 14 -15 14 6 0 21 -6 35
-14z m110 -45 c8 -5 11 -10 5 -10 -5 0 -17 5 -25 10 -8 5 -10 10 -5 10 6 0 17
-5 25 -10z m130 -50 c8 -5 11 -10 5 -10 -5 0 -17 5 -25 10 -8 5 -10 10 -5 10
6 0 17 -5 25 -10z m2837 -56 c-3 -3 -12 -4 -19 -1 -8 3 -5 6 6 6 11 1 17 -2
13 -5z m-170 -50 c-3 -3 -12 -4 -19 -1 -8 3 -5 6 6 6 11 1 17 -2 13 -5z"/>
<path d="M5881 9491 c-12 -22 -1 -69 24 -103 10 -13 15 -16 12 -8 -28 76 -30
92 -19 111 7 11 8 19 2 19 -5 0 -14 -8 -19 -19z"/>
<path d="M5565 9473 c5 -18 0 -27 -27 -43 -23 -14 -27 -20 -15 -20 47 0 70 35
46 70 -8 12 -9 10 -4 -7z"/>
<path d="M5065 9440 c-3 -6 5 -10 19 -10 13 0 33 -3 43 -7 16 -6 16 -5 4 10
-15 19 -56 23 -66 7z"/>
<path d="M5115 9355 c-14 -13 -25 -29 -25 -35 0 -6 16 -27 35 -48 l36 -37 -21
35 c-26 45 -25 75 2 94 12 9 17 16 10 16 -7 0 -24 -11 -37 -25z"/>
<path d="M5223 9353 c-20 -7 -15 -58 7 -78 24 -22 26 -13 4 20 -12 18 -13 28
-4 44 6 12 9 21 8 20 -2 0 -9 -3 -15 -6z"/>
<path d="M6290 9211 c-5 -11 -21 -22 -35 -24 -25 -4 -25 -4 1 -3 16 0 33 10
42 24 8 12 12 22 9 22 -4 0 -11 -9 -17 -19z"/>
<path d="M6145 9189 c-4 -6 -5 -12 -2 -15 2 -3 7 2 10 11 7 17 1 20 -8 4z"/>
<path d="M6188 9193 c6 -2 18 -2 25 0 6 3 1 5 -13 5 -14 0 -19 -2 -12 -5z"/>
<path d="M4378 9163 c6 -2 18 -2 25 0 6 3 1 5 -13 5 -14 0 -19 -2 -12 -5z"/>
<path d="M4338 9153 c7 -3 16 -2 19 1 4 3 -2 6 -13 5 -11 0 -14 -3 -6 -6z"/>
<path d="M4279 9129 l-24 -20 30 17 c39 24 40 24 28 24 -6 0 -21 -9 -34 -21z"/>
<path d="M4335 9099 c-27 -16 -45 -29 -40 -29 6 0 29 11 52 24 31 18 44 21 54
12 10 -8 10 -7 0 7 -7 9 -14 17 -15 16 0 -1 -23 -14 -51 -30z"/>
<path d="M4423 9063 c9 -2 25 -2 35 0 9 3 1 5 -18 5 -19 0 -27 -2 -17 -5z"/>
<path d="M4578 9043 c7 -3 16 -2 19 1 4 3 -2 6 -13 5 -11 0 -14 -3 -6 -6z"/>
<path d="M2836 8564 c-47 -32 -79 -64 -72 -71 3 -3 -4 -13 -16 -23 -16 -13
-18 -19 -8 -25 9 -5 11 -4 6 3 -4 7 -1 12 8 12 9 0 16 5 16 11 0 5 4 8 8 5 9
-6 64 46 64 61 0 4 4 7 10 5 5 -1 7 2 3 8 -3 5 3 10 13 10 11 0 22 7 26 15 8
23 -15 18 -58 -11z m-29 -59 c-12 -13 -24 -19 -26 -13 -2 6 4 17 15 25 29 21
34 15 11 -12z"/>
<path d="M6451 8569 c17 -11 39 -12 39 -1 0 4 -12 8 -27 9 -19 1 -22 -1 -12
-8z"/>
<path d="M6660 8555 c-10 -12 -8 -14 9 -10 11 2 24 -1 27 -7 4 -7 2 -8 -4 -4
-7 4 -12 2 -12 -3 0 -6 2 -11 4 -11 2 0 12 -3 22 -7 13 -5 15 -3 9 7 -5 9 -4
11 3 6 7 -4 12 -11 12 -15 0 -13 -39 -20 -46 -9 -4 7 -10 4 -16 -6 -7 -12 -13
-14 -22 -7 -7 6 -24 7 -42 2 l-29 -8 28 -6 c18 -5 27 -14 27 -27 0 -11 3 -19
8 -18 4 1 18 -4 30 -11 13 -7 26 -10 29 -7 3 3 -6 10 -20 15 -39 15 -43 31 -5
20 18 -5 45 -9 60 -9 16 0 28 -4 28 -10 0 -5 3 -9 8 -8 4 0 18 -4 32 -11 23
-11 22 -11 -12 -7 -21 3 -38 1 -38 -5 0 -5 5 -9 10 -9 20 0 160 -64 160 -73 0
-6 -5 -6 -12 0 -19 14 -98 17 -98 4 0 -6 3 -10 8 -9 10 3 72 -25 72 -33 0 -4
-16 -3 -35 1 -20 4 -35 4 -35 -1 0 -5 6 -10 13 -11 6 -1 -13 -4 -43 -7 l-55
-6 80 -34 c44 -19 86 -34 92 -34 9 0 10 -4 2 -13 -7 -8 -7 -14 1 -19 5 -3 10
-12 9 -18 0 -9 -2 -8 -6 1 -2 6 -9 10 -14 6 -8 -4 -12 7 -11 26 0 3 -9 6 -21
6 -12 1 -40 5 -62 8 -33 6 -24 -1 51 -37 50 -24 95 -50 99 -57 6 -10 4 -11
-11 -5 -29 12 -128 35 -132 30 -7 -7 79 -44 92 -39 15 6 29 -33 15 -42 -5 -3
-9 1 -9 8 0 10 -12 14 -40 13 -22 -1 -40 2 -40 6 0 10 -84 23 -102 16 -7 -2 6
-10 30 -17 41 -13 78 -40 53 -40 -6 0 -11 5 -11 11 0 5 -5 7 -11 3 -6 -3 -14
-1 -18 5 -5 8 -38 11 -100 9 -84 -3 -90 -4 -62 -15 24 -9 30 -9 25 0 -4 7 3 2
15 -10 12 -13 28 -23 36 -23 8 0 15 -7 15 -15 0 -8 -7 -15 -16 -15 -8 0 -12 5
-9 10 7 12 -26 13 -102 4 -36 -5 -53 -11 -53 -21 0 -11 -4 -11 -21 -3 -11 7
-23 9 -26 6 -6 -6 58 -36 77 -36 5 0 10 -7 10 -15 0 -14 -11 -19 -37 -16 -7 1
-13 -4 -13 -11 0 -10 -2 -10 -9 0 -14 23 -184 -35 -284 -97 -21 -13 -40 -21
-42 -19 -3 2 13 15 35 27 22 12 38 26 35 31 -3 4 4 6 15 3 11 -3 20 0 20 6 0
9 -28 16 -52 12 -23 -3 -1 11 53 35 34 16 57 30 51 32 -15 5 -133 -56 -158
-82 -11 -11 -27 -22 -35 -24 -45 -10 -48 -63 -2 -54 17 3 24 1 19 -6 -4 -6
-14 -8 -23 -5 -10 4 -14 2 -9 -5 10 -16 -14 -26 -27 -12 -9 10 -9 11 3 5 12
-7 13 -6 2 6 -11 12 -14 12 -22 -1 -12 -19 -13 -33 -1 -25 5 3 12 1 16 -5 13
-21 -24 -9 -40 13 l-17 22 7 -22 c4 -14 2 -23 -4 -23 -6 0 -11 5 -11 12 0 9
-3 9 -11 1 -8 -8 -7 -17 3 -32 8 -12 18 -18 21 -14 4 3 7 1 7 -6 0 -7 -8 -11
-17 -9 -9 2 -15 6 -12 9 7 11 -33 49 -45 42 -6 -3 8 11 31 31 29 26 41 43 38
57 -3 15 0 19 10 15 8 -3 15 -1 15 5 0 6 4 8 9 5 5 -3 14 1 20 8 8 10 9 16 1
21 -6 3 -7 11 -4 17 5 7 2 8 -5 4 -7 -5 -10 -14 -7 -21 2 -7 -2 -16 -11 -19
-11 -5 -14 -2 -9 11 5 12 -1 9 -17 -7 -13 -14 -22 -28 -20 -32 2 -4 -2 -5 -10
-3 -7 3 -34 -16 -62 -44 -26 -27 -60 -51 -74 -54 -18 -4 -37 -23 -61 -61 -19
-30 -38 -55 -43 -56 -4 0 -28 28 -55 62 -67 87 -81 104 -82 96 0 -11 148 -199
199 -251 25 -26 70 -64 99 -84 28 -20 52 -44 52 -53 0 -10 -19 -27 -47 -41
-65 -33 -70 -45 -44 -103 17 -37 20 -51 10 -62 -14 -17 -37 -12 -133 28 -83
34 -132 37 -141 8 -9 -28 -2 -35 52 -55 86 -32 180 -83 212 -115 56 -56 54
-101 -7 -171 -37 -42 -87 -127 -80 -134 2 -2 14 16 27 41 13 24 27 44 32 44 4
0 18 -13 32 -29 14 -17 28 -27 31 -24 3 4 6 0 6 -9 0 -8 11 -20 25 -26 14 -6
25 -16 25 -22 0 -6 5 -8 10 -5 6 3 10 2 10 -3 0 -6 -7 -12 -15 -16 -8 -3 -15
-11 -15 -17 0 -7 8 -5 20 6 13 12 31 16 60 13 45 -4 42 -8 60 84 19 95 28 89
75 -46 15 -44 29 -104 32 -133 3 -30 10 -56 14 -59 5 -3 6 8 3 23 -5 25 -3 28
20 28 14 0 26 -4 26 -8 0 -5 13 -7 28 -6 30 4 107 -32 132 -61 16 -18 42 -19
152 -5 48 6 59 5 64 -9 8 -21 43 -20 106 4 28 11 61 17 73 14 14 -3 47 8 90
30 l67 36 19 -21 c17 -20 21 -20 37 -8 9 8 28 21 42 28 14 7 40 25 59 41 34
29 34 30 16 50 -18 20 -18 21 19 59 23 23 35 44 31 51 -4 7 7 26 26 46 25 26
30 37 21 43 -10 6 -10 10 2 20 8 7 13 21 11 32 -2 11 10 48 28 82 17 34 32 64
32 67 0 3 4 11 8 18 11 17 -1 15 -19 -3 -9 -8 -12 -15 -8 -15 4 0 0 -6 -10
-13 -10 -7 -25 -30 -34 -50 l-17 -37 -24 37 c-16 25 -19 34 -8 30 13 -5 13 -2
-1 26 -20 41 -19 40 -26 22 -3 -9 -2 -13 4 -10 6 4 9 -11 7 -37 -2 -41 -22
-58 -22 -19 0 11 -3 22 -7 26 -4 4 3 28 16 54 50 98 84 279 56 296 -5 3 -10
14 -9 23 0 14 2 13 9 -3 6 -13 9 -15 9 -5 0 8 -6 24 -14 34 -8 11 -15 27 -15
35 0 14 1 14 10 1 7 -12 9 -10 7 7 0 12 -5 19 -10 16 -5 -3 -6 4 -2 16 3 11 2
29 -4 38 -8 14 -11 15 -11 3 -1 -10 -4 -9 -10 5 -14 32 -11 45 8 44 10 0 12
-3 5 -6 -14 -5 -18 -24 -5 -22 19 3 33 -2 27 -11 -3 -5 -1 -19 5 -31 12 -21
70 -78 81 -79 7 0 -5 72 -17 105 -4 11 -13 27 -21 36 -8 9 -15 26 -16 36 0 13
-7 19 -17 16 -16 -3 -68 32 -59 41 3 3 18 -1 33 -9 16 -8 35 -15 44 -15 13 0
12 3 -3 20 -10 11 -14 20 -10 20 5 0 1 6 -10 13 -12 10 -14 16 -7 21 17 10 32
-2 32 -27 0 -18 2 -19 11 -7 7 11 9 5 7 -24 -3 -36 0 -41 45 -73 26 -19 47
-28 47 -21 0 7 -13 39 -29 71 -31 59 -30 69 1 40 10 -9 18 -12 18 -6 0 17 -40
63 -55 63 -8 0 -16 4 -19 9 -4 5 4 6 16 3 21 -5 22 -4 6 11 -9 9 -19 22 -21
29 -4 10 -8 9 -17 -2 -10 -12 -11 -11 -7 7 5 22 -14 48 -26 36 -4 -3 -7 -1 -7
5 0 7 -6 12 -13 12 -16 0 -53 37 -45 45 8 9 67 -25 83 -48 8 -12 16 -18 16
-14 5 27 3 34 -12 49 -9 9 -25 16 -35 15 -11 -1 -18 4 -16 11 1 8 -2 11 -7 8
-5 -3 -11 0 -14 8 -4 10 1 12 16 9 22 -5 22 -5 2 10 -10 8 -26 12 -34 9 -9 -3
-12 -1 -7 6 3 6 2 13 -4 17 -5 3 -10 0 -10 -8 0 -10 -8 -13 -27 -9 -25 5 -25
6 -8 13 20 8 18 9 -24 13 -8 0 -15 9 -17 19 -3 19 12 24 18 5 3 -7 7 -4 10 8
4 16 0 19 -20 19 -16 0 -26 6 -27 17 -2 11 3 16 16 15 11 -1 17 -7 15 -14 -6
-16 -1 -16 26 -2 16 8 19 8 13 -1 -10 -17 16 -32 32 -18 10 8 15 4 22 -13 5
-13 10 -18 10 -11 1 6 6 12 12 12 8 0 8 -5 -1 -15 -13 -16 -9 -18 30 -15 14 1
21 -2 17 -7 -9 -8 -14 -10 -44 -12 -14 -1 -14 -4 -5 -13 10 -10 15 -10 21 1 6
10 10 10 16 1 4 -6 4 -14 1 -18 -4 -3 10 -23 31 -44 29 -30 34 -41 25 -50 -18
-18 -15 -24 28 -58 22 -17 40 -28 40 -23 0 6 -11 16 -25 23 -19 10 -22 16 -13
23 9 6 8 7 -4 3 -14 -4 -17 -1 -14 17 3 12 5 27 5 32 1 6 6 3 11 -5 8 -12 10
-12 10 5 0 12 -13 27 -31 38 -18 10 -29 20 -26 23 3 3 16 -2 30 -11 24 -15 26
-15 41 7 9 12 16 18 16 12 0 -5 -5 -15 -11 -21 -16 -16 -1 -35 22 -28 18 6 19
5 7 -14 -7 -12 -19 -19 -25 -16 -7 2 -13 -3 -13 -12 0 -9 2 -14 5 -11 3 2 28
-17 57 -44 29 -27 54 -44 56 -38 2 5 -4 17 -12 26 -9 8 -16 20 -16 25 0 5 -7
9 -15 9 -8 0 -15 4 -15 10 0 5 -4 9 -9 7 -5 -1 -10 3 -10 8 -2 17 43 14 57 -3
7 -9 12 -11 12 -4 0 7 5 12 10 12 6 0 10 -7 10 -15 0 -9 21 -37 46 -63 39 -39
46 -43 39 -22 -4 14 -14 39 -23 55 l-15 30 22 -19 c11 -11 21 -16 21 -12 0 14
-23 51 -36 59 -8 4 -14 12 -14 18 0 16 38 -14 44 -34 2 -10 9 -16 15 -13 5 4
14 -2 20 -11 5 -10 13 -15 17 -10 4 4 0 15 -8 24 -26 30 -31 59 -9 59 10 0 17
-6 14 -12 -2 -7 9 -20 26 -30 17 -10 31 -22 31 -25 0 -11 30 -39 41 -39 5 0 6
12 3 26 -5 19 -4 25 5 20 6 -4 11 -13 11 -19 0 -7 14 -21 30 -30 17 -10 30
-22 30 -28 0 -5 5 -9 11 -9 6 0 9 9 6 20 -7 28 3 25 36 -10 16 -16 23 -30 17
-30 -10 0 -10 -3 0 -15 15 -18 -1 -20 -18 -3 -7 7 -12 8 -12 2 0 -18 78 -93
84 -79 2 7 0 17 -6 23 -6 6 -6 12 3 17 8 5 23 -4 43 -26 17 -19 34 -33 39 -31
5 1 17 -8 28 -20 19 -22 19 -22 10 -2 -9 19 -8 21 19 18 18 -2 30 1 30 8 0 9
3 9 13 0 6 -7 12 -16 13 -20 2 -21 18 -69 26 -78 5 -7 18 -10 28 -7 13 3 20 0
20 -8 0 -11 2 -11 10 1 15 23 12 33 -10 27 -11 -3 -23 0 -27 5 -4 7 -1 8 8 4
8 -4 4 1 -7 11 -37 31 -44 58 -44 163 0 98 -1 102 -29 130 -16 16 -41 32 -57
36 -16 4 -95 43 -176 86 -175 94 -262 127 -338 128 -149 0 -272 67 -390 209
-24 30 -61 66 -82 81 -49 36 -286 142 -299 135 -5 -4 -8 -2 -7 3 2 8 -64 62
-76 62 -2 0 -9 -7 -16 -15z m267 -200 c0 -8 -4 -12 -9 -9 -4 3 -8 9 -8 15 0 5
4 9 8 9 5 0 9 -7 9 -15z m68 -85 c3 -6 -1 -7 -9 -4 -18 7 -21 14 -7 14 6 0 13
-4 16 -10z m-15 -74 c-7 -7 -13 -7 -20 0 -6 6 -3 10 10 10 13 0 16 -4 10 -10z
m-18 -46 c2 -8 9 -20 17 -26 12 -9 11 -12 -3 -17 -9 -4 -14 -3 -11 2 3 5 1 12
-5 16 -6 4 -8 10 -5 15 3 5 1 11 -5 15 -5 3 -10 11 -10 18 0 15 18 -3 22 -23z
m64 15 c-10 -8 -22 -12 -27 -10 -4 3 -10 -1 -12 -7 -3 -8 -6 -5 -6 6 -1 11 4
16 12 13 8 -3 20 -1 28 4 22 14 26 10 5 -6z m47 -21 c-3 -8 1 -14 10 -14 9 0
19 -5 23 -11 4 -8 -1 -9 -17 -4 -13 4 -25 12 -27 16 -2 5 -10 9 -18 9 -22 0
-9 15 15 17 13 1 18 -3 14 -13z m-56 -31 c-4 -3 1 -12 11 -19 16 -12 16 -13 0
-14 -9 0 -18 5 -20 12 -3 9 -6 9 -12 0 -7 -11 0 -15 63 -38 28 -10 3 -13 -29
-4 -36 10 -70 5 -70 -11 0 -10 5 -11 72 -13 56 -2 68 -11 44 -34 -15 -15 -16
-15 -11 -1 4 10 1 20 -5 24 -14 9 -32 -14 -23 -29 3 -5 1 -6 -6 -2 -6 4 -8 12
-5 18 4 6 2 8 -3 5 -17 -10 -67 11 -81 34 -15 24 -12 29 17 32 11 1 21 5 21
11 0 5 8 15 18 22 18 14 30 19 19 7z m36 -7 c4 -10 1 -13 -9 -9 -15 6 -19 23
-5 23 5 0 11 -7 14 -14z m107 -6 c0 -5 -5 -10 -11 -10 -5 0 -7 5 -4 10 3 6 8
10 11 10 2 0 4 -4 4 -10z m-83 -37 c-3 -3 -11 -2 -17 2 -9 6 -9 10 1 16 14 8
27 -7 16 -18z m38 17 c3 -5 -1 -10 -10 -10 -9 0 -13 5 -10 10 3 6 8 10 10 10
2 0 7 -4 10 -10z m85 -11 c0 -6 7 -8 15 -5 9 3 18 -1 21 -9 4 -8 11 -12 17 -8
6 3 7 1 3 -5 -4 -7 -2 -12 5 -12 7 0 10 -2 7 -5 -9 -9 -38 7 -38 21 0 7 -6 11
-13 8 -8 -3 -20 2 -27 11 -8 10 -9 15 -1 15 6 0 11 -5 11 -11z m-190 -29 c0
-5 -4 -10 -10 -10 -5 0 -10 5 -10 10 0 6 5 10 10 10 6 0 10 -4 10 -10z m-215
-40 c4 -6 13 -7 23 -2 15 7 33 8 72 3 6 0 10 -5 10 -10 0 -5 -12 -8 -27 -6
-16 2 -34 -2 -42 -9 -12 -8 -13 -8 -7 1 5 9 0 11 -21 7 -17 -3 -36 1 -48 10
-19 15 -19 15 7 16 15 0 30 -5 33 -10z m538 -23 c4 3 7 4 7 0 0 -18 -21 -14
-30 5 -10 21 -10 21 3 6 8 -10 17 -15 20 -11z m-370 -14 c4 -7 14 -13 21 -13
7 0 21 -9 31 -20 10 -11 21 -17 25 -15 5 3 22 -8 39 -24 18 -17 32 -24 35 -17
2 6 5 3 5 -7 1 -12 6 -16 14 -11 9 5 9 4 0 -6 -10 -11 -16 -11 -30 2 -10 8
-26 18 -36 21 -10 4 -15 11 -12 17 5 9 -15 15 -37 11 -5 0 -8 6 -8 14 0 9 -6
12 -17 8 -10 -4 -14 -2 -10 4 4 6 0 13 -7 16 -8 3 -17 3 -19 -1 -2 -4 -2 -2
-1 5 2 7 -1 15 -6 18 -6 4 -10 1 -10 -4 0 -20 -16 -11 -17 8 -1 15 3 18 15 14
9 -4 21 -12 25 -20z m-319 -8 c-6 -16 -24 -21 -24 -7 0 11 11 22 21 22 5 0 6
-7 3 -15z m453 9 c-3 -3 -12 -4 -19 -1 -8 3 -5 6 6 6 11 1 17 -2 13 -5z m478
-22 c-3 -3 -11 0 -18 7 -9 10 -8 11 6 5 10 -3 15 -9 12 -12z m-865 -2 c0 -5
-7 -10 -15 -10 -8 0 -15 5 -15 10 0 6 7 10 15 10 8 0 15 -4 15 -10z m122 -4
c10 5 11 4 1 -7 -10 -9 -16 -10 -24 -2 -6 6 -19 9 -28 6 -13 -4 -14 -3 -1 5
10 8 18 8 27 1 7 -6 18 -7 25 -3z m784 -8 c12 -14 13 -18 3 -10 -9 6 -18 10
-21 7 -2 -3 -5 2 -5 10 0 19 0 19 23 -7z m-466 -3 c11 -13 10 -14 -4 -9 -9 3
-16 10 -16 15 0 13 6 11 20 -6z m185 5 c3 -6 -1 -7 -9 -4 -18 7 -21 14 -7 14
6 0 13 -4 16 -10z m-590 -10 c3 -5 -1 -10 -9 -10 -9 0 -16 5 -16 10 0 6 4 10
9 10 6 0 13 -4 16 -10z m446 -23 c-16 -16 -26 0 -10 19 9 11 15 12 17 4 2 -6
-1 -17 -7 -23z m242 13 c20 0 37 -35 25 -51 -8 -11 -9 -10 -4 3 4 13 -3 22
-25 33 -18 10 -27 20 -22 27 5 9 8 9 11 0 2 -7 9 -12 15 -12z m-633 0 c0 -5
-2 -10 -4 -10 -3 0 -8 5 -11 10 -3 6 -1 10 4 10 6 0 11 -4 11 -10z m734 -5
c-5 -11 -1 -14 12 -9 16 5 16 4 4 -5 -17 -12 -36 1 -26 18 10 16 16 13 10 -4z
m-889 -20 l50 -13 -82 2 c-46 2 -86 6 -90 11 -5 4 -3 5 4 2 6 -4 22 -3 35 2
29 12 24 12 83 -4z m235 5 c0 -5 -4 -10 -10 -10 -5 0 -10 5 -10 10 0 6 5 10
10 10 6 0 10 -4 10 -10z m57 -26 c-1 -2 -13 -1 -26 3 -16 4 -19 8 -10 14 12 7
45 -9 36 -17z m-187 6 c0 -5 -4 -10 -10 -10 -5 0 -10 5 -10 10 0 6 5 10 10 10
6 0 10 -4 10 -10z m687 -22 c-3 -7 -5 -2 -5 12 0 14 2 19 5 13 2 -7 2 -19 0
-25z m-957 7 c-25 -6 -49 -10 -54 -7 -14 8 23 19 64 19 34 1 34 1 -10 -12z
m487 9 c-4 -4 11 -15 33 -26 21 -11 50 -31 64 -45 14 -13 30 -22 36 -18 5 3
13 -2 17 -12 3 -10 15 -28 26 -40 36 -40 10 -25 -40 23 -26 26 -72 60 -101 76
-28 17 -49 34 -46 39 3 5 8 9 11 9 4 0 3 -3 0 -6z m523 -13 c0 -6 -4 -12 -8
-15 -5 -3 -9 1 -9 9 0 8 4 15 9 15 4 0 8 -4 8 -9z m-284 -42 c14 -15 15 -22 6
-31 -10 -10 -19 -5 -43 19 l-31 31 26 0 c14 0 33 -9 42 -19z m-1076 -29 c0 -5
-5 -10 -11 -10 -5 0 -7 5 -4 10 3 6 8 10 11 10 2 0 4 -4 4 -10z m1113 -17 c-7
-2 -13 -9 -13 -14 0 -10 32 1 43 15 5 7 7 3 5 -9 -2 -11 2 -19 8 -18 7 1 20
-7 30 -19 19 -21 19 -21 -23 1 -28 14 -43 17 -43 10 0 -7 -8 -4 -20 6 -16 14
-17 20 -8 27 7 4 18 7 23 7 6 0 4 -3 -2 -6z m704 -62 c8 -7 11 -16 8 -20 -9
-8 -35 29 -34 48 0 14 1 14 6 1 4 -8 12 -21 20 -29z m-1880 -17 c-3 -3 -12 -4
-19 -1 -8 3 -5 6 6 6 11 1 17 -2 13 -5z m1133 -13 c-7 -15 -6 -23 6 -35 8 -9
11 -16 6 -16 -21 0 -34 28 -22 49 6 12 13 21 16 21 2 0 0 -9 -6 -19z m889 -15
c-3 -3 -11 5 -18 17 -13 21 -12 21 5 5 10 -10 16 -20 13 -22z m-854 -56 c3 -5
2 -10 -4 -10 -5 0 -13 5 -16 10 -3 6 -2 10 4 10 5 0 13 -4 16 -10z m45 -19 c0
-6 -4 -13 -10 -16 -5 -3 -10 1 -10 9 0 9 5 16 10 16 6 0 10 -4 10 -9z m20 -30
c0 -5 -7 -11 -14 -14 -10 -4 -13 -1 -9 9 6 15 23 19 23 5z m-10 -46 c7 -9 8
-15 2 -15 -5 0 -12 7 -16 15 -3 8 -4 15 -2 15 2 0 9 -7 16 -15z m-1287 -757
c-2 -4 3 -5 10 -2 15 5 94 -62 84 -72 -11 -12 -58 6 -50 19 4 8 1 7 -10 -2
-16 -12 -18 -12 -16 6 0 3 -6 10 -15 15 -9 5 -16 16 -16 23 0 8 -7 15 -15 15
-8 0 -15 7 -15 16 0 11 -6 15 -19 11 -13 -3 -18 0 -15 8 3 6 -2 18 -11 25 -8
7 -15 18 -15 24 0 6 5 4 10 -4 8 -13 10 -12 10 4 0 14 11 6 43 -30 23 -26 41
-51 40 -56z m285 -144 c13 -9 22 -11 22 -4 0 7 5 8 13 3 6 -4 30 -9 52 -10
105 -6 120 -9 122 -18 5 -19 -144 -8 -247 19 -8 3 -16 5 -18 5 -2 1 0 6 3 11
9 14 27 12 53 -6z"/>
<path d="M7181 7794 c14 -17 32 -19 27 -2 -2 6 -12 12 -22 14 -14 2 -15 0 -5
-12z"/>
<path d="M6508 8553 c7 -3 16 -2 19 1 4 3 -2 6 -13 5 -11 0 -14 -3 -6 -6z"/>
<path d="M6480 8470 c0 -5 5 -10 10 -10 6 0 10 5 10 10 0 6 -4 10 -10 10 -5 0
-10 -4 -10 -10z"/>
<path d="M2706 8425 c-3 -8 -1 -15 3 -15 5 0 11 7 15 15 3 8 1 15 -3 15 -5 0
-11 -7 -15 -15z"/>
<path d="M7890 8370 c8 -5 20 -10 25 -10 6 0 3 5 -5 10 -8 5 -19 10 -25 10 -5
0 -3 -5 5 -10z"/>
<path d="M6610 8245 c0 -8 4 -15 9 -15 5 0 17 -3 27 -7 12 -4 15 -3 10 5 -7
12 5 16 33 13 7 -2 10 2 6 8 -10 18 -85 14 -85 -4z"/>
<path d="M6608 8113 c6 -2 18 -2 25 0 6 3 1 5 -13 5 -14 0 -19 -2 -12 -5z"/>
<path d="M7187 8013 c-7 -12 11 -53 23 -53 14 0 13 9 -5 27 -8 8 -13 19 -10
24 4 5 4 9 1 9 -3 0 -7 -3 -9 -7z"/>
<path d="M6508 8003 c7 -3 16 -2 19 1 4 3 -2 6 -13 5 -11 0 -14 -3 -6 -6z"/>
<path d="M7140 7999 c0 -5 4 -8 9 -5 5 4 11 0 14 -6 2 -7 8 -10 12 -6 4 4 4
11 0 17 -8 14 -35 14 -35 0z"/>
<path d="M6395 7980 c-3 -5 1 -10 9 -10 9 0 16 5 16 10 0 6 -4 10 -9 10 -6 0
-13 -4 -16 -10z"/>
<path d="M6130 7880 c-8 -15 -8 -18 3 -14 8 3 14 11 14 19 0 20 -4 19 -17 -5z"/>
<path d="M4816 7679 c-9 -13 -27 -58 -42 -101 -42 -128 -22 -179 50 -124 18
14 58 31 87 39 l54 14 -37 7 c-21 4 -38 10 -38 15 0 4 25 18 56 31 56 23 124
73 124 91 0 20 -53 7 -125 -31 -42 -22 -81 -40 -86 -40 -7 0 -10 22 -7 57 3
62 -10 78 -36 42z"/>
<path d="M7815 7660 c3 -5 11 -10 16 -10 6 0 7 5 4 10 -3 6 -11 10 -16 10 -6
0 -7 -4 -4 -10z"/>
<path d="M7660 7635 c7 -9 15 -13 17 -11 7 7 -7 26 -19 26 -6 0 -6 -6 2 -15z"/>
<path d="M7590 7631 c0 -4 9 -16 20 -26 11 -10 20 -14 20 -9 0 5 -9 17 -20 27
-11 9 -20 13 -20 8z"/>
<path d="M7933 7575 c0 -8 4 -12 9 -9 5 3 6 10 3 15 -9 13 -12 11 -12 -6z"/>
<path d="M7906 7556 c5 -14 34 -31 34 -20 0 3 -6 12 -14 20 -19 18 -27 18 -20
0z"/>
<path d="M7979 7552 c14 -26 41 -48 41 -33 0 6 -5 11 -12 11 -6 0 -8 3 -5 7 8
7 -11 33 -25 33 -5 0 -5 -8 1 -18z"/>
<path d="M8030 7555 c0 -13 10 -26 32 -43 14 -11 16 -11 11 7 -3 12 -9 18 -14
16 -4 -3 -12 3 -18 12 -6 10 -10 14 -11 8z"/>
<path d="M8080 7552 c0 -18 12 -42 21 -42 14 0 10 26 -6 40 -9 8 -15 8 -15 2z"/>
<path d="M8196 7443 c-6 -14 -5 -15 5 -6 7 7 10 15 7 18 -3 3 -9 -2 -12 -12z"/>
<path d="M7330 7280 c0 -33 -6 -50 -20 -63 -12 -10 -18 -22 -15 -27 3 -5 -4
-25 -15 -45 -24 -43 -24 -41 -4 -49 8 -3 12 -2 9 4 -3 6 -2 10 4 10 5 0 13 15
16 33 4 17 11 37 15 42 16 22 30 106 21 123 -8 13 -10 7 -11 -28z"/>
<path d="M7386 7163 c-6 -14 -5 -15 5 -6 7 7 10 15 7 18 -3 3 -9 -2 -12 -12z"/>
<path d="M7338 7102 c-4 -12 1 -18 13 -18 14 0 15 4 8 18 -5 10 -11 18 -13 18
-2 0 -6 -8 -8 -18z"/>
<path d="M7265 7060 c3 -5 8 -10 11 -10 2 0 4 5 4 10 0 6 -5 10 -11 10 -5 0
-7 -4 -4 -10z"/>
<path d="M7245 7041 c-3 -5 -1 -12 5 -16 5 -3 10 1 10 9 0 18 -6 21 -15 7z"/>
<path d="M5708 6483 c7 -3 16 -2 19 1 4 3 -2 6 -13 5 -11 0 -14 -3 -6 -6z"/>
<path d="M5775 6443 c15 -24 30 -43 32 -43 7 0 -31 61 -46 73 -8 7 -2 -7 14
-30z"/>
<path d="M6232 6455 c0 -16 2 -22 5 -12 2 9 2 23 0 30 -3 6 -5 -1 -5 -18z"/>
<path d="M5668 6393 c6 -2 18 -2 25 0 6 3 1 5 -13 5 -14 0 -19 -2 -12 -5z"/>
<path d="M1376 6271 c-9 -10 -20 -36 -23 -57 -3 -22 -20 -68 -38 -104 -41 -83
-48 -113 -33 -145 18 -39 50 -42 105 -7 27 16 47 35 46 41 -2 6 3 10 10 9 6
-2 12 6 12 17 1 11 3 25 7 30 21 37 26 199 6 222 -16 20 -72 16 -92 -6z m22
-91 c-7 -10 -14 -17 -17 -15 -4 4 18 35 25 35 2 0 -1 -9 -8 -20z m42 -35 c0
-5 -5 -3 -10 5 -5 8 -10 20 -10 25 0 6 5 3 10 -5 5 -8 10 -19 10 -25z m-11
-37 c0 -13 -3 -17 -6 -10 -2 6 -10 9 -16 5 -7 -4 -6 1 2 10 18 22 21 21 20 -5z"/>
<path d="M5797 6279 c7 -7 15 -10 18 -7 3 3 -2 9 -12 12 -14 6 -15 5 -6 -5z"/>
<path d="M7984 5845 c-4 -9 -2 -21 4 -27 15 -15 44 -1 40 19 -4 23 -36 29 -44
8z"/>
<path d="M7904 5695 c-9 -23 10 -40 25 -22 9 11 8 17 -4 27 -12 10 -16 9 -21
-5z"/>
<path d="M8863 5624 c-8 -21 13 -42 28 -27 13 13 5 43 -11 43 -6 0 -13 -7 -17
-16z"/>
<path d="M8513 5275 c3 -57 2 -107 -3 -110 -14 -9 -49 44 -67 101 -9 30 -25
62 -35 71 -18 16 -18 13 -13 -73 8 -109 13 -137 25 -129 6 3 7 -1 4 -9 -3 -9
-1 -30 5 -48 8 -23 8 -41 0 -65 -12 -39 -45 -61 -63 -43 -8 8 -6 9 9 4 14 -5
17 -4 10 4 -6 6 -22 13 -35 14 -23 3 -25 0 -23 -32 2 -54 -16 -195 -40 -297
-20 -89 -21 -92 -53 -97 -17 -4 -43 -15 -57 -26 l-24 -19 -26 27 c-26 27 -27
35 -18 120 0 7 6 10 13 6 8 -5 9 -2 5 10 -6 14 -3 17 9 12 13 -5 14 -4 6 7 -7
8 -9 16 -6 19 3 3 5 24 6 47 0 23 4 44 9 46 4 3 6 12 3 19 -7 18 3 23 51 27
46 5 80 38 72 70 -5 20 -5 20 13 4 33 -30 26 -1 -7 32 l-34 32 7 -37 c4 -20 8
-39 10 -41 2 -2 -1 -12 -6 -22 -6 -11 -27 -20 -56 -25 -60 -9 -74 -25 -74 -84
0 -27 -9 -70 -21 -97 -26 -60 -27 -108 -2 -141 33 -44 45 -47 87 -18 44 29 68
33 86 11 6 -8 16 -13 22 -12 5 1 17 -9 25 -23 l15 -25 -21 25 c-38 46 -22 10
20 -42 l41 -52 -4 -121 c-4 -110 -7 -125 -35 -184 -18 -36 -29 -69 -26 -74 3
-6 2 -8 -3 -5 -5 4 -48 -19 -96 -51 -48 -31 -101 -64 -118 -73 -19 -11 -28
-22 -24 -29 4 -7 3 -9 -3 -6 -10 6 -79 -58 -76 -71 1 -4 -1 -9 -4 -12 -4 -3
-3 1 1 8 10 17 -5 15 -32 -4 -12 -8 -20 -19 -17 -23 2 -5 -5 -17 -17 -27 -11
-11 -38 -46 -59 -78 l-38 -60 4 44 c3 40 7 47 54 78 29 19 50 36 48 38 -2 2
-29 -13 -60 -33 -56 -37 -57 -38 -57 -85 0 -56 -18 -105 -49 -132 -11 -11 -21
-24 -21 -29 0 -6 14 2 30 18 17 16 30 27 30 24 0 -3 -21 -25 -47 -49 -26 -25
-39 -35 -29 -22 11 12 15 22 9 22 -12 0 -45 -35 -39 -41 2 -2 -5 -5 -17 -5
-12 -1 -69 -8 -127 -17 -135 -19 -231 -64 -304 -144 -27 -30 -72 -66 -99 -79
l-50 -26 48 -34 c83 -58 131 -63 191 -17 18 13 61 32 97 42 79 23 97 32 163
86 29 24 63 46 76 50 93 29 129 48 144 76 16 31 11 54 -9 43 -7 -4 -9 -4 -5 1
4 4 2 15 -4 24 -7 9 -1 6 14 -7 l26 -23 51 96 c29 52 49 101 45 107 -4 7 -3 8
4 4 7 -4 12 -1 12 6 0 30 51 117 99 170 85 94 137 89 192 -16 l31 -61 -27 -90
c-57 -192 -60 -204 -42 -222 14 -14 19 -13 59 11 24 14 68 41 98 59 58 35 96
84 152 191 37 73 35 93 -24 219 -42 91 -43 94 -50 237 -3 80 -11 164 -17 187
-15 57 -73 183 -110 237 -17 24 -31 49 -31 54 0 6 19 9 43 7 33 -3 41 -7 39
-20 -2 -9 13 -49 32 -88 20 -40 43 -96 51 -125 20 -65 69 -125 85 -102 13 20
13 186 -1 230 -5 19 -13 88 -16 152 -6 111 -4 121 22 194 26 72 28 83 22 193
-10 205 -28 341 -45 341 -13 0 -14 -16 -9 -105z m-76 -32 c-4 -3 -1 -13 6 -22
11 -14 10 -14 -5 -2 -16 12 -16 31 -1 31 4 0 3 -3 0 -7z m22 -46 c-2 -1 -13
-9 -24 -17 -19 -14 -19 -14 -6 3 7 9 18 17 24 17 6 0 8 -1 6 -3z m28 -60 c2
-18 0 -57 -3 -88 -4 -42 -11 -58 -27 -69 -19 -12 -20 -11 -10 2 10 11 10 17 0
27 -9 10 -9 11 4 6 10 -4 16 0 17 12 2 17 2 78 0 92 0 3 0 19 1 35 1 37 14 26
18 -17z m-28 -298 c-26 -170 -51 -289 -61 -289 -11 0 -10 4 7 85 21 94 45 251
45 290 0 26 18 61 27 52 1 -2 -7 -64 -18 -138z m-289 -928 c-6 -12 -9 -25 -6
-29 2 -4 -4 -8 -14 -9 -13 -1 -16 4 -12 19 5 20 4 20 -24 3 l-29 -17 24 21
c13 12 30 20 38 17 8 -3 16 1 20 10 3 8 8 13 10 10 3 -2 0 -14 -7 -25z m-89
-75 c-20 -21 -51 -26 -51 -9 0 3 6 3 14 0 8 -3 22 3 32 14 9 10 19 19 22 19 3
0 -5 -11 -17 -24z m-60 -69 l-23 -22 17 28 c10 15 20 25 23 22 3 -3 -5 -16
-17 -28z m-56 -87 c-3 -5 -12 -10 -18 -10 -7 0 -6 4 3 10 19 12 23 12 15 0z
m-95 -144 c0 -3 -4 -8 -10 -11 -5 -3 -10 -1 -10 4 0 6 5 11 10 11 6 0 10 -2
10 -4z m7 -46 c-6 -11 -15 -20 -20 -20 -4 0 -5 6 0 13 4 6 8 15 9 20 1 4 2 10
3 13 0 3 5 2 11 -1 6 -4 5 -13 -3 -25z m-17 -41 c0 -4 -6 -11 -12 -15 -7 -4
-10 -4 -6 1 4 4 0 14 -10 21 -15 12 -15 12 6 7 12 -3 22 -9 22 -14z m-183 -39
c-18 -25 -155 -178 -179 -199 -9 -8 -14 -19 -11 -24 3 -6 1 -7 -5 -3 -6 3 -13
2 -16 -3 -3 -5 -21 -12 -39 -15 -19 -4 -55 -20 -81 -37 -63 -42 -120 -36 -194
22 l-24 18 47 22 c27 13 67 46 97 80 53 60 79 74 98 55 8 -8 10 -7 5 5 -9 24
95 67 180 73 39 3 84 9 100 15 17 5 31 10 33 10 2 1 -3 -8 -11 -19z m131 -21
c10 -13 9 -19 -5 -30 -16 -13 -17 -12 -4 4 12 15 9 21 -11 18 -4 0 -5 6 -1 15
3 8 6 14 7 12 1 -2 7 -10 14 -19z m-63 -28 c3 -5 2 -12 -3 -15 -5 -3 -9 1 -9
9 0 17 3 19 12 6z m-115 -74 c0 -2 -15 -16 -32 -33 l-33 -29 29 33 c28 30 36
37 36 29z"/>
<path d="M7160 3176 c0 -2 8 -10 18 -17 15 -13 16 -12 3 4 -13 16 -21 21 -21
13z"/>
<path d="M8986 5371 c-3 -5 0 -14 8 -20 10 -8 16 -8 25 2 6 8 8 17 4 20 -9 10
-31 9 -37 -2z"/>
<path d="M8694 5295 c-4 -9 -2 -21 4 -27 15 -15 44 -1 40 19 -4 23 -36 29 -44
8z"/>
<path d="M8843 5293 c-21 -7 -15 -33 7 -33 11 0 20 6 20 14 0 18 -11 25 -27
19z"/>
<path d="M8822 4430 c0 -14 2 -19 5 -12 2 6 2 18 0 25 -3 6 -5 1 -5 -13z"/>
<path d="M1885 4390 c-7 -23 2 -43 16 -35 12 8 12 55 0 55 -5 0 -12 -9 -16
-20z"/>
<path d="M8136 4356 c-19 -28 -40 -73 -47 -99 -10 -41 -9 -53 6 -88 20 -44 51
-58 94 -43 18 6 36 28 59 73 27 54 32 75 32 132 0 76 -3 79 -77 77 -28 -1 -38
-9 -67 -52z m68 -1 c-6 -22 -24 -71 -39 -110 -15 -38 -30 -79 -34 -89 -6 -17
-10 -14 -25 17 -14 31 -15 44 -6 79 16 60 72 144 97 144 18 0 19 -3 7 -41z
m54 -110 c-3 -3 -9 2 -12 12 -6 14 -5 15 5 6 7 -7 10 -15 7 -18z"/>
<path d="M8822 4370 c0 -19 2 -27 5 -17 2 9 2 25 0 35 -3 9 -5 1 -5 -18z"/>
<path d="M1906 4321 c-19 -20 -41 -31 -65 -33 -36 -4 -36 -4 -8 -12 34 -10 66
-2 95 24 22 20 30 50 14 50 -5 0 -21 -13 -36 -29z"/>
<path d="M7322 4093 c-27 -4 -32 -8 -27 -21 4 -9 16 -67 28 -128 l21 -112 -42
-69 c-47 -77 -49 -88 -25 -102 22 -12 46 0 96 48 59 55 89 129 95 233 l4 88
-35 35 c-35 35 -42 37 -115 28z m99 -270 c13 -16 12 -17 -3 -4 -10 7 -18 15
-18 17 0 8 8 3 21 -13z m-21 -74 c-15 -27 -87 -80 -87 -64 0 8 3 13 6 13 14
-3 40 15 35 23 -3 5 -2 9 3 8 22 -4 25 2 7 16 -16 13 -16 14 -1 9 9 -3 17 -2
17 3 0 5 7 10 14 10 11 0 12 -5 6 -18z"/>
<path d="M5960 3946 c0 -32 48 -47 68 -23 9 10 2 15 -28 24 -30 8 -40 7 -40
-1z"/>
<path d="M1526 3898 c-19 -26 -20 -53 -5 -97 17 -49 66 -65 118 -38 30 15 28
33 -3 29 -14 -2 -35 7 -52 21 -22 19 -28 33 -28 66 -1 46 -8 51 -30 19z"/>
<path d="M5730 3807 c-59 -30 -45 -119 19 -125 44 -4 111 25 111 49 0 34 -23
68 -53 79 -38 13 -46 13 -77 -3z"/>
<path d="M6966 3780 c-20 -22 -36 -44 -36 -49 0 -5 -3 -16 -6 -25 -4 -11 -1
-16 10 -16 10 0 23 15 32 38 8 20 21 49 29 65 19 37 14 34 -29 -13z"/>
<path d="M8710 3789 c0 -5 5 -7 10 -4 6 3 10 8 10 11 0 2 -4 4 -10 4 -5 0 -10
-5 -10 -11z"/>
<path d="M6432 3745 l-47 -45 28 -25 c15 -13 33 -22 41 -19 19 7 56 78 56 108
0 39 -24 33 -78 -19z"/>
<path d="M4060 3730 c5 -17 21 -45 35 -62 38 -45 32 -95 -15 -125 -38 -24 -72
-55 -67 -60 2 -1 19 2 38 7 30 9 43 6 105 -25 39 -19 81 -35 93 -35 34 0 17
16 -34 30 -50 14 -98 55 -93 79 4 17 30 19 88 6 l35 -8 -19 29 c-10 16 -41 49
-68 73 -27 24 -46 46 -43 49 3 3 35 11 72 18 59 10 63 12 27 13 -22 0 -67 10
-99 21 -32 11 -59 20 -61 20 -1 0 1 -14 6 -30z"/>
<path d="M3374 3614 c11 -7 27 -14 37 -14 9 0 32 -6 50 -14 19 -7 66 -16 105
-20 39 -3 90 -13 113 -21 67 -23 280 -77 292 -73 18 6 -271 86 -371 103 -52 8
-129 24 -170 35 -58 14 -70 16 -56 4z"/>
<path d="M8713 3612 c10 -11 18 -37 19 -63 1 -39 2 -40 5 -10 6 45 -3 77 -24
85 -16 6 -16 6 0 -12z"/>
<path d="M5270 3493 c-120 -61 -170 -104 -170 -145 0 -37 61 -104 103 -113 37
-8 63 -29 83 -65 25 -46 31 -51 68 -60 58 -13 54 -6 -81 149 -24 26 -43 53
-43 59 0 19 88 88 129 101 70 20 94 93 39 118 -19 8 -41 1 -128 -44z"/>
<path d="M3072 3500 c-18 -11 -37 -32 -42 -46 -13 -34 -13 -34 14 -34 19 0 25
7 30 35 4 19 11 35 17 35 27 0 322 -71 346 -83 15 -8 75 -29 133 -47 58 -18
130 -44 160 -57 30 -13 63 -22 72 -19 10 2 16 1 13 -4 -5 -8 123 -47 138 -42
5 1 6 -2 2 -7 -8 -14 28 -31 67 -31 32 1 32 1 -22 29 -30 16 -95 41 -145 56
-138 41 -372 119 -450 150 -38 15 -115 38 -170 52 -55 13 -107 26 -115 28 -8
3 -30 -4 -48 -15z m85 -6 c-3 -3 -12 -4 -19 -1 -8 3 -5 6 6 6 11 1 17 -2 13
-5z m40 -10 c-3 -3 -12 -4 -19 -1 -8 3 -5 6 6 6 11 1 17 -2 13 -5z m40 -10
c-3 -3 -12 -4 -19 -1 -8 3 -5 6 6 6 11 1 17 -2 13 -5z"/>
<path d="M6732 3483 c-22 -9 -2 -23 34 -23 24 0 34 5 34 15 0 15 -39 20 -68 8z"/>
<path d="M4378 3407 c26 -26 32 -41 32 -74 0 -23 -5 -45 -10 -48 -16 -10 -40
14 -40 39 -1 24 -22 56 -39 56 -16 0 -14 -15 10 -71 20 -46 24 -49 58 -49 21
0 55 -8 76 -19 31 -15 45 -32 74 -92 32 -66 41 -76 84 -97 57 -26 232 -78 297
-88 25 -3 90 -20 145 -36 137 -42 197 -57 269 -68 34 -5 75 -12 91 -15 25 -5
23 -3 -10 11 -22 9 -67 25 -100 36 -33 12 -87 31 -120 43 -33 13 -115 32 -182
44 -183 31 -425 118 -436 158 -3 10 -8 39 -12 65 -5 37 -13 51 -40 73 -41 31
-44 57 -15 115 23 45 25 54 9 44 -6 -4 -25 -36 -42 -73 l-30 -66 -13 31 c-9
22 -10 42 -4 63 10 35 10 35 -50 45 l-34 6 32 -33z"/>
<path d="M3930 3329 c1 -44 78 -77 181 -77 42 -1 104 -8 138 -17 67 -17 96
-14 39 4 -58 18 -312 93 -335 98 -15 4 -23 1 -23 -8z"/>
<path d="M5477 2831 c28 -13 153 -30 148 -20 -3 4 -26 10 -52 13 -119 17 -119
17 -96 7z"/>
<path d="M7000 2641 c0 -6 -17 -30 -38 -54 -50 -57 -66 -97 -58 -142 10 -49
42 -64 99 -44 38 13 42 17 45 52 3 32 9 40 44 58 22 11 68 26 102 33 53 11 57
14 33 20 -18 4 -52 -1 -93 -14 -95 -29 -104 -28 -104 18 0 46 -9 82 -21 82 -5
0 -9 -4 -9 -9z"/>
<path d="M7339 2613 c-13 -16 -12 -17 4 -4 16 13 21 21 13 21 -2 0 -10 -8 -17
-17z"/>
<path d="M7362 2448 c2 -6 10 -14 16 -16 7 -2 10 2 6 12 -7 18 -28 22 -22 4z"/>
<path d="M5691 2424 c0 -11 3 -14 6 -6 3 7 2 16 -1 19 -3 4 -6 -2 -5 -13z"/>
<path d="M7169 2428 c-5 -18 -6 -38 -1 -34 7 8 12 36 6 36 -2 0 -4 -1 -5 -2z"/>
<path d="M7183 2383 c-7 -3 -13 -9 -13 -15 0 -6 7 -7 16 -4 14 5 15 4 4 -9 -7
-8 -8 -15 -3 -15 11 0 33 21 33 31 0 10 -23 17 -37 12z"/>
<path d="M5703 2330 c0 -30 2 -43 4 -27 2 15 2 39 0 55 -2 15 -4 2 -4 -28z"/>
<path d="M7090 2366 c0 -2 7 -7 16 -10 8 -3 12 -2 9 4 -6 10 -25 14 -25 6z"/>
<path d="M7059 2343 c-13 -16 -12 -17 4 -4 9 7 17 15 17 17 0 8 -8 3 -21 -13z"/>
<path d="M6520 2299 c0 -5 5 -7 10 -4 6 3 10 8 10 11 0 2 -4 4 -10 4 -5 0 -10
-5 -10 -11z"/>
<path d="M6633 2292 l-32 -17 44 0 c47 0 54 5 33 23 -9 7 -22 5 -45 -6z"/>
<path d="M5692 2240 c0 -14 2 -19 5 -12 2 6 2 18 0 25 -3 6 -5 1 -5 -13z"/>
<path d="M5427 2232 c-10 -10 -17 -23 -17 -29 0 -12 33 -43 46 -43 4 0 -2 7
-14 16 -26 18 -28 31 -5 56 9 10 14 18 11 18 -3 0 -12 -8 -21 -18z"/>
<path d="M5681 2198 c0 -9 -4 -25 -7 -35 -5 -17 -5 -17 6 0 6 10 9 25 7 35 -4
15 -5 15 -6 0z"/>
<path d="M5830 2200 c-8 -5 -10 -10 -5 -10 6 0 17 5 25 10 8 5 11 10 5 10 -5
0 -17 -5 -25 -10z"/>
<path d="M5515 2113 c15 -23 33 -44 42 -47 22 -9 79 22 99 52 16 25 15 25 -17
-4 -55 -51 -71 -51 -114 -2 l-36 43 26 -42z"/>
<path d="M2860 2131 c0 -5 5 -13 10 -16 6 -3 10 -2 10 4 0 5 -4 13 -10 16 -5
3 -10 2 -10 -4z"/>
<path d="M5685 2110 c3 -5 12 -10 20 -10 8 0 17 5 20 10 4 6 -5 10 -20 10 -15
0 -24 -4 -20 -10z"/>
<path d="M5600 2052 c0 -10 38 -42 50 -42 6 0 10 5 10 10 0 6 -5 10 -12 10
-20 0 5 18 32 23 14 2 1 5 -27 6 -29 0 -53 -2 -53 -7z"/>
<path d="M3720 1991 c14 -11 30 -21 35 -21 11 0 -7 14 -40 31 -13 7 -12 3 5
-10z"/>
<path d="M3778 1963 c6 -2 18 -2 25 0 6 3 1 5 -13 5 -14 0 -19 -2 -12 -5z"/>
<path d="M5015 1902 c11 -14 26 -21 37 -19 10 3 18 0 18 -6 0 -7 4 -6 9 3 14
21 2 33 -17 18 -14 -11 -15 -10 -9 7 6 18 6 19 -6 3 -13 -16 -15 -16 -32 0
-18 16 -18 15 0 -6z"/>
<path d="M3854 1870 c-51 -39 -94 -85 -94 -101 0 -5 20 1 44 13 75 36 93 7 61
-98 -20 -65 -19 -78 3 -69 45 18 177 36 267 36 l100 1 34 40 c43 50 71 62 191
83 101 18 137 30 110 38 -8 3 -29 8 -47 11 -24 4 -31 2 -27 -8 4 -11 -8 -10
-61 4 -63 17 -65 17 -60 0 5 -17 3 -17 -58 -1 -35 10 -68 21 -75 25 -16 10
-15 -6 1 -23 14 -15 -5 -11 -85 19 -31 12 -48 14 -51 7 -2 -7 -19 -4 -48 7
-24 10 -50 21 -58 24 -10 4 -12 -1 -6 -17 7 -22 6 -22 -32 -6 -21 9 -44 19
-51 22 -9 4 -10 9 -1 19 21 25 -5 13 -57 -26z"/>
<path d="M4913 1876 c5 -16 22 -17 40 -4 15 12 14 13 -13 13 -16 0 -29 -4 -27
-9z"/>
<path d="M5177 1869 c18 -11 38 -17 44 -13 17 10 -18 34 -50 34 -26 0 -26 -1
6 -21z"/>
<path d="M4825 1844 c19 -15 15 -16 -50 -9 -65 6 -68 5 -50 -9 19 -15 18 -15
-15 -11 l-35 5 30 -10 c36 -12 101 -5 153 17 36 16 37 16 12 24 -14 4 -34 7
-45 8 l-20 0 20 -15z"/>
<path d="M4600 1825 c-8 -9 -8 -15 -2 -15 12 0 26 19 19 26 -2 2 -10 -2 -17
-11z"/>
<path d="M7372 9330 c0 -14 2 -19 5 -12 2 6 2 18 0 25 -3 6 -5 1 -5 -13z"/>
<path d="M7330 9290 c-9 -6 -10 -10 -3 -10 6 0 15 5 18 10 8 12 4 12 -15 0z"/>
<path d="M7465 9280 c-3 -5 -1 -10 4 -10 6 0 11 5 11 10 0 6 -2 10 -4 10 -3 0
-8 -4 -11 -10z"/>
<path d="M8937 9154 c-3 -3 -3 -13 0 -22 4 -10 2 -13 -5 -8 -7 4 -12 1 -12 -8
0 -23 21 -20 27 4 3 11 10 20 15 20 5 0 6 5 3 10 -7 11 -19 13 -28 4z"/>
<path d="M8803 9125 c0 -7 6 -11 14 -8 7 3 13 6 13 8 0 2 -6 5 -13 8 -8 3 -14
-1 -14 -8z"/>
<path d="M8961 9094 c0 -11 3 -14 6 -6 3 7 2 16 -1 19 -3 4 -6 -2 -5 -13z"/>
<path d="M9105 9100 l-30 -8 27 -1 c15 0 30 4 33 9 3 6 5 9 3 9 -2 -1 -16 -5
-33 -9z"/>
<path d="M9495 9081 c-2 -5 2 -16 9 -26 13 -18 14 -18 25 3 6 12 10 22 9 23
-23 6 -39 6 -43 0z"/>
<path d="M9663 8980 c-1 -17 2 -30 7 -30 6 0 10 9 10 20 0 11 5 20 10 20 6 0
10 5 10 10 0 6 -8 10 -17 10 -13 0 -19 -9 -20 -30z"/>
<path d="M9745 8977 c-4 -10 -5 -21 -1 -24 10 -10 18 4 13 24 -4 17 -4 17 -12
0z"/>
<path d="M9712 8954 c7 -15 14 -21 16 -15 5 16 -5 41 -17 41 -7 0 -6 -10 1
-26z"/>
<path d="M10180 8925 c7 -9 15 -13 17 -11 7 7 -7 26 -19 26 -6 0 -6 -6 2 -15z"/>
<path d="M10150 8916 c0 -1 5 -18 11 -36 11 -29 13 -30 22 -14 7 13 7 19 -1
22 -7 2 -12 10 -12 18 0 8 -4 14 -10 14 -5 0 -10 -2 -10 -4z"/>
<path d="M10215 8890 c-18 -19 -17 -20 3 -20 13 0 22 6 22 15 0 9 6 12 18 9
14 -5 15 -4 2 5 -21 15 -24 14 -45 -9z"/>
<path d="M948 8863 c7 -3 16 -2 19 1 4 3 -2 6 -13 5 -11 0 -14 -3 -6 -6z"/>
<path d="M10643 8844 c-9 -24 12 -38 28 -18 12 16 12 17 -1 9 -13 -8 -13 -7
-1 8 12 15 11 17 -3 17 -9 0 -19 -7 -23 -16z"/>
<path d="M1780 8840 c0 -5 7 -7 15 -4 8 4 15 8 15 10 0 2 -7 4 -15 4 -8 0 -15
-4 -15 -10z"/>
<path d="M2176 8835 c4 -8 11 -15 16 -15 6 0 5 6 -2 15 -7 8 -14 15 -16 15 -2
0 -1 -7 2 -15z"/>
<path d="M2410 8830 c0 -5 9 -10 21 -10 11 0 17 5 14 10 -3 6 -13 10 -21 10
-8 0 -14 -4 -14 -10z"/>
<path d="M1941 8794 c0 -11 3 -14 6 -6 3 7 2 16 -1 19 -3 4 -6 -2 -5 -13z"/>
<path d="M10430 8786 c0 -19 11 -25 30 -17 25 10 22 31 -5 31 -15 0 -25 -6
-25 -14z"/>
<path d="M855 8779 c-4 -6 -5 -12 -2 -15 2 -3 7 2 10 11 7 17 1 20 -8 4z"/>
<path d="M760 8766 c0 -9 5 -16 10 -16 6 0 10 4 10 9 0 6 -4 13 -10 16 -5 3
-10 -1 -10 -9z"/>
<path d="M36 8661 c-3 -5 3 -11 14 -14 13 -3 20 0 20 9 0 15 -26 19 -34 5z"/>
<path d="M7 5114 c6 -16 19 -18 27 -5 3 5 -3 11 -13 14 -14 3 -18 1 -14 -9z"/>
<path d="M440 4601 c0 -23 16 -36 23 -18 2 6 -2 18 -9 25 -12 11 -14 9 -14 -7z"/>
<path d="M615 4530 c3 -5 8 -10 11 -10 2 0 4 5 4 10 0 6 -5 10 -11 10 -5 0 -7
-4 -4 -10z"/>
<path d="M460 4478 c0 -4 7 -8 15 -8 8 0 15 4 15 8 0 5 -7 9 -15 9 -8 0 -15
-4 -15 -9z"/>
<path d="M480 4440 c0 -5 5 -10 10 -10 6 0 10 5 10 10 0 6 -4 10 -10 10 -5 0
-10 -4 -10 -10z"/>
<path d="M10755 4231 c-3 -6 -13 -10 -23 -10 -35 -2 -139 -10 -190 -15 -53 -5
-86 -21 -77 -36 3 -5 1 -11 -5 -15 -13 -8 -13 -35 0 -35 5 0 7 7 4 15 -4 9 0
15 9 15 8 0 17 5 19 11 2 7 18 12 35 13 17 0 29 4 27 7 -2 3 3 6 10 6 8 0 12
-6 9 -14 -3 -7 -1 -13 5 -13 6 0 12 4 14 10 2 5 27 10 55 12 29 2 53 6 53 10
0 3 14 9 30 13 17 4 30 12 30 18 0 8 4 7 9 -2 5 -7 14 -10 21 -6 9 6 9 9 -1
16 -18 11 -26 11 -34 0z"/>
<path d="M10530 4150 c0 -5 5 -10 11 -10 5 0 7 5 4 10 -3 6 -8 10 -11 10 -2 0
-4 -4 -4 -10z"/>
<path d="M9590 3536 c0 -2 8 -10 18 -17 15 -13 16 -12 3 4 -13 16 -21 21 -21
13z"/>
<path d="M9435 3320 c-3 -5 -1 -10 4 -10 6 0 11 5 11 10 0 6 -2 10 -4 10 -3 0
-8 -4 -11 -10z"/>
</g>
</svg>
