<?xml version="1.0" encoding="UTF-8"?>
<svg width="547.59mm" height="161.79mm" version="1.1" viewBox="0 0 1940.277 573.26817" xmlns="http://www.w3.org/2000/svg">
 <g transform="translate(595.14 -245.73)">
  <path d="m1190.7 245.73 154.43 6.3555-0.4297 20.43-11.428-0.14258-68.428 127.64-62 113.55 4.0391 0.83593c4.0934 0.48195 4.2011 2.3775 4.4472 4.2246 0.058 8.1664 0.2771 16.507-0.664 27.172-0.1923 1.5646-1.6212 2.374-3.0645 2.3144l-8.1855-0.0996-0.096 2.5742 10.094 0.28711-0.2871 5.5195-9.9023 6e-3 -1.045 18.592c-0.3441 3.5234-2.8509 4.277-7.4648 4.0371-39.964-1.0272-41.728-2.2277-101.94-10.014l-0.25 6.9336c16.829 2.4 36.962 4.9619 57.523 8.7656 11.863 1.849 23.69 3.8462 35.164 7.2539 1.6856-0.37875 3.559-0.63964 5.2187 1.5606l84.699 17.461c8.8087 0.83156 9.9081 1.1112 11.248 5.7383 1.8925 7.8608 2.6831 11.418 2.9492 18.762 0.4893 13.5 0.4653 26.769-0.3965 39.842l21.15 42.641-29.928 6.1758c-2.6205 2.789-7.4887 2.4641-9.9219 0.60742l-86.215 8.2461c0.3415 2.3881-6.6875 2.54-7.1386 1.2461l-34.004 5.582c-64.279 6.4622-136.3 9.8269-211.74 11.826l-1.0273 43.002c-3e-3 5.3014-0.0504 5.2243-4.6699 6.0254l-124.51 18.25c-1.7941 0.27994-2.1738-0.32343-3.0859-1.7344l-4.4297-7.5195-11.939 2.1094c-5.3383 1.0892-5.8051 0.83661-7.1543-1.5469l-32.334-64.266-111.18-1.7734-367.16-7.7305c-49.977-1.2142-97.014-1.5888-154.26-4.8789-39.687-2.3649-77.967-6.7243-112.92-15.793-5.4709-0.81923-8.106-1.5164-10.541-11.701-0.8533-6.0386-2.1646-15.221-2.164-22.938 1e-3 -13.029-0.045-24.82-6.8047-25.504-14.132-0.37211-16.078-2.0843-19.121-11.955l-261.54-1.0801c-79.248-0.53539-157.68-2.6475-222.98-23.326l-32.082-0.0664c-1.3666-0.0999-2.2976-0.30767-3.7617-1.3828l-26.137-0.19727c-3.1568-0.0243-3.454-2.3853 0.016-2.4297l26.272-0.33593c0.968-0.68955 1.9662-1.3425 3.4199-1.4492l31.621-0.9961c46.176-17.795 62.599-31.421 303.61-78.137 3.8135-3.0175 7.5416-6.6378 11.529-8.4355l0.8281 1.793c108.28-65.645 116.55-63.783 224.79-68.215l16 0.28711c96.75 0.51601 121.31 0.5248 215.67 19.32l17.188 4.1074c60.563 13.975 116.45 35.436 173.43 55.143 59.428 5.904 118.86 7.1019 178.29 8.5723l141.16-25.934c39.675-7.7486 77.564-14.448 119.26-21.902 9.565-1.4328 16.906-2.4991 24.754-8.0312z"/>
 </g>
</svg>
